<svg width="133" height="83" viewBox="0 0 133 83" fill="none" xmlns="http://www.w3.org/2000/svg">
<rect width="133" height="82.9" rx="4" fill="white"/>
<g clip-path="url(#clip0_1733_22024)">
<mask id="mask0_1733_22024" style="mask-type:luminance" maskUnits="userSpaceOnUse" x="10" y="21" width="113" height="41">
<path d="M10.0527 21.6945H122.949V61.208H10.0527V21.6945Z" fill="white"/>
</mask>
<g mask="url(#mask0_1733_22024)">
<path d="M52.9022 41.2208C53.2618 41.4238 53.7766 41.6042 54.4477 41.7595C55.1188 41.9158 55.806 41.9941 56.5091 41.9941C57.1962 41.9941 57.8289 41.908 58.406 41.737C58.9829 41.5658 59.4803 41.3138 59.8943 40.9862C60.307 40.6586 60.6319 40.266 60.8668 39.8041C61.1001 39.344 61.2182 38.824 61.2182 38.2469C61.2182 37.5438 61.0098 36.919 60.5961 36.3725C60.1821 35.826 59.4909 35.3976 58.5228 35.0844L56.6259 34.4755C55.9081 34.2406 55.4158 33.9954 55.1505 33.738C54.8853 33.4806 54.7528 33.1636 54.7528 32.7894C54.7528 32.2416 54.9636 31.8438 55.3855 31.5943C55.806 31.345 56.4002 31.219 57.1656 31.219C58.1169 31.219 58.9777 31.3913 59.7418 31.7349C59.9751 31.8438 60.1477 31.8994 60.2566 31.8994C60.4595 31.8994 60.5603 31.7576 60.5603 31.4764V30.8448C60.5603 30.6579 60.5219 30.5091 60.4446 30.4005C60.3653 30.2904 60.2325 30.1815 60.0469 30.0715C59.9049 29.9946 59.7193 29.9163 59.4844 29.838C59.2495 29.7597 58.9964 29.6895 58.723 29.6272C58.4496 29.5635 58.1619 29.5131 57.8568 29.4746C57.5517 29.4348 57.2504 29.4161 56.9548 29.4161C56.3606 29.4161 55.7981 29.4944 55.2673 29.6497C54.7368 29.8063 54.2724 30.0371 53.8744 30.3408C53.4753 30.6459 53.1555 31.0133 52.9141 31.4417C52.6714 31.8717 52.5508 32.3665 52.5508 32.9287C52.5508 33.6318 52.7735 34.2791 53.2192 34.8736C53.6636 35.4678 54.3773 35.9203 55.3616 36.2318L57.3049 36.8407C57.9617 37.0596 58.4114 37.2945 58.6528 37.5438C58.8943 37.7944 59.0148 38.1049 59.0148 38.4818C59.0148 39.027 58.7853 39.4499 58.3236 39.7458C57.8636 40.0417 57.2122 40.1902 56.3682 40.1902C55.8377 40.1902 55.3072 40.137 54.7753 40.027C54.2448 39.917 53.7538 39.7604 53.3002 39.5575C53.1596 39.4965 53.0455 39.4499 52.9605 39.4182C52.8743 39.3862 52.7922 39.3719 52.7139 39.3719C52.5109 39.3719 52.4102 39.5112 52.4102 39.7924V40.4714C52.4102 40.5974 52.4381 40.722 52.4923 40.8469C52.5467 40.9716 52.6846 41.0962 52.9022 41.2208Z" fill="#252B39"/>
<path d="M31.798 37.076C31.798 37.5282 31.7555 37.9157 31.6693 38.2354C31.5818 38.5565 31.4306 38.8418 31.213 39.0911C30.8535 39.497 30.4316 39.7823 29.9474 39.9454C29.4633 40.1098 29.0029 40.1919 28.5653 40.1919C27.9562 40.1919 27.488 40.0315 27.1604 39.7121C26.8329 39.3907 26.6684 38.9185 26.6684 38.2939C26.6684 37.6239 26.8871 37.108 27.3249 36.7484C27.7614 36.3889 28.4247 36.2098 29.3148 36.2098C29.7207 36.2098 30.1385 36.2363 30.5682 36.2922C30.9968 36.3466 31.4068 36.4209 31.798 36.5135V37.076ZM30.2631 34.7215C29.7711 34.6513 29.2988 34.6166 28.8463 34.6166C27.4737 34.6166 26.379 34.9642 25.5673 35.6592C24.7555 36.3531 24.3496 37.2711 24.3496 38.4118C24.3496 39.4877 24.6772 40.3486 25.334 40.988C25.9891 41.6274 26.8792 41.9482 28.0042 41.9482C29.58 41.9482 30.8933 41.3316 31.9387 40.0966C32.0793 40.3952 32.2158 40.6564 32.3486 40.8818C32.4811 41.1088 32.6418 41.3156 32.8287 41.5028C32.9534 41.6274 33.0859 41.6911 33.2265 41.6911C33.3368 41.6911 33.4535 41.6513 33.5782 41.5743L34.4219 41.0118C34.5929 40.8858 34.6793 40.7544 34.6793 40.6127C34.6793 40.5198 34.6473 40.4176 34.5864 40.3087C34.3981 39.9652 34.2534 39.6444 34.1526 39.3485C34.0504 39.0526 34 38.6532 34 38.1544V33.7967C34 32.3284 33.6286 31.2314 32.887 30.5057C32.1443 29.7801 30.9781 29.4179 29.3863 29.4179C28.6515 29.4179 27.9562 29.503 27.2997 29.6742C26.6443 29.8465 26.0821 30.0495 25.6149 30.2844C25.4266 30.377 25.302 30.47 25.2397 30.5654C25.1771 30.6583 25.1454 30.8149 25.1454 31.0325V31.6876C25.1454 31.9689 25.2397 32.1109 25.4266 32.1109C25.473 32.1109 25.5434 32.0989 25.6377 32.0751C25.7317 32.0523 25.887 31.9927 26.1059 31.8998C26.5741 31.7117 27.0542 31.5589 27.5466 31.4424C28.0386 31.327 28.5187 31.2671 28.9869 31.2671C30.0179 31.2671 30.7432 31.4741 31.1654 31.8881C31.587 32.3019 31.798 33.0156 31.798 34.0303V35.0146C31.2675 34.89 30.7554 34.7933 30.2631 34.7215Z" fill="#252B39"/>
<path d="M38.5172 40.9871C38.5955 41.2538 38.6882 41.4288 38.7984 41.5136C38.9084 41.6 39.0797 41.6426 39.3143 41.6426H40.4618C40.7113 41.6426 40.8902 41.596 41.0004 41.503C41.1091 41.409 41.1953 41.2286 41.2578 40.9633L43.3192 32.3436L45.4031 40.9633C45.4654 41.2286 45.5516 41.409 45.6619 41.503C45.7705 41.596 45.9496 41.6426 46.2002 41.6426H47.3464C47.5813 41.6426 47.7536 41.6 47.8625 41.5136C47.9725 41.4288 48.0655 41.2538 48.1438 40.9871L51.3751 30.6336C51.4242 30.4943 51.4534 30.3843 51.4708 30.306C51.4851 30.2277 51.4933 30.1586 51.4933 30.095C51.4933 29.8774 51.3843 29.7674 51.1657 29.7674H49.9239C49.6733 29.7674 49.498 29.811 49.3972 29.8961C49.295 29.9822 49.2062 30.1586 49.1281 30.4228L46.8093 39.394L44.7 30.4228C44.639 30.1586 44.5515 29.9822 44.4429 29.8961C44.3339 29.811 44.1548 29.7674 43.9056 29.7674H42.8269C42.5776 29.7674 42.3972 29.811 42.2883 29.8961C42.1783 29.9822 42.0935 30.1586 42.0311 30.4228L39.9456 39.2772L37.6973 30.4228C37.6193 30.1586 37.5301 29.9822 37.428 29.8961C37.3261 29.811 37.1508 29.7674 36.9002 29.7674H35.5896C35.3706 29.7674 35.2617 29.8774 35.2617 30.095C35.2617 30.1892 35.3002 30.3694 35.3785 30.6336L38.5172 40.9871Z" fill="#252B39"/>
<path d="M58.3988 47.4746C53.4588 49.5704 48.0889 50.5843 43.2047 50.5843C35.9644 50.5843 28.9538 48.5971 23.2869 45.2978C22.7894 45.0111 22.422 45.5194 22.8344 45.892C28.0876 50.6358 35.032 53.4854 42.7417 53.4854C48.2428 53.4854 54.6328 51.7567 59.0393 48.5056C59.7676 47.9656 59.1442 47.1589 58.3988 47.4746Z" fill="#F68D11"/>
<path d="M55.6154 45.6404C55.2266 45.9125 55.2944 46.2891 55.7254 46.2373C57.1449 46.0661 60.3072 45.6868 60.8711 46.4083C61.4349 47.1315 60.2438 50.1054 59.7117 51.4334C59.5513 51.8352 59.8975 51.9986 60.2609 51.6935C62.6249 49.7155 63.2362 45.5727 62.752 44.9731C62.2719 44.3789 58.1385 43.8695 55.6154 45.6404Z" fill="#F68D11"/>
<path d="M75.5137 36.2398C76.0949 36.2398 76.5338 36.0488 76.827 35.6695C77.1226 35.2902 77.2697 34.7236 77.2697 33.9714C77.2697 32.4671 76.6983 31.715 75.556 31.715C74.9669 31.715 74.3782 31.9434 73.7891 32.397V35.5156C74.0796 35.7651 74.3635 35.9467 74.6394 36.0648C74.9168 36.1816 75.2086 36.2398 75.5137 36.2398ZM73.3407 38.8691C73.2347 38.8691 73.1816 38.816 73.1816 38.7098V31.4817C73.1816 31.3755 73.2347 31.3213 73.3407 31.3213H73.5436C73.6577 31.3213 73.7176 31.3755 73.7244 31.4817L73.768 31.9179C74.0945 31.6554 74.4115 31.463 74.7204 31.3424C75.0295 31.2229 75.3479 31.162 75.6741 31.162C76.3612 31.162 76.904 31.4085 77.3031 31.9008C77.6984 32.3956 77.8975 33.0708 77.8975 33.9305C77.8975 34.8019 77.6892 35.4982 77.2697 36.0171C76.8508 36.5344 76.2884 36.7931 75.5771 36.7931C74.9233 36.7931 74.3291 36.5531 73.7891 36.0702V38.7098C73.7891 38.816 73.736 38.8691 73.6287 38.8691H73.3407Z" fill="#252B39"/>
<path d="M80.6254 36.2416C80.8947 36.2416 81.1866 36.1872 81.4998 36.0758C81.81 35.9672 82.127 35.8119 82.4467 35.6144V34.2824C81.9707 34.1551 81.509 34.0914 81.0633 34.0914C80.0697 34.0914 79.5722 34.4734 79.5722 35.2402C79.5722 35.5678 79.6608 35.816 79.8375 35.9869C80.0152 36.1555 80.2781 36.2416 80.6254 36.2416ZM80.5406 36.7949C80.051 36.7949 79.6622 36.6557 79.3747 36.3758C79.0867 36.0945 78.9434 35.7203 78.9434 35.2521C78.9434 34.7335 79.1211 34.3249 79.4755 34.0277C79.8307 33.7294 80.3125 33.5793 80.924 33.5793C81.3987 33.5793 81.9067 33.6617 82.4467 33.8248V32.9306C82.4467 32.4982 82.3432 32.188 82.1376 31.998C81.9319 31.8111 81.5911 31.7168 81.1164 31.7168C80.6319 31.7168 80.1147 31.8056 79.5617 31.9837C79.4966 32.0048 79.4435 32.0154 79.401 32.0154C79.3308 32.0154 79.2951 31.9704 79.2951 31.8774V31.7062C79.2951 31.6493 79.3056 31.6054 79.3268 31.5737C79.3479 31.5404 79.3853 31.5138 79.4343 31.4927C79.9941 31.2738 80.5869 31.1638 81.2118 31.1638C81.8366 31.1638 82.2983 31.2952 82.5993 31.5577C82.903 31.8205 83.0531 32.2169 83.0531 32.7488V36.5177C83.0531 36.625 83 36.6781 82.8938 36.6781H82.6697C82.5635 36.6781 82.5064 36.625 82.4985 36.5177L82.4576 36.0601C81.8458 36.5508 81.2077 36.7949 80.5406 36.7949Z" fill="#252B39"/>
<path d="M84.8518 36.6777C84.7456 36.6777 84.6914 36.6246 84.6914 36.5173V31.4831C84.6914 31.3771 84.7456 31.3227 84.8518 31.3227H85.0548C85.1688 31.3227 85.2287 31.3771 85.2352 31.4831L85.2897 32.0998C85.5587 31.8014 85.8229 31.5917 86.0814 31.466C86.3415 31.3425 86.6333 31.2801 86.9595 31.2801C87.0739 31.2801 87.1652 31.2842 87.237 31.2907C87.3429 31.2975 87.3963 31.3557 87.3963 31.4619V31.7272C87.3963 31.7562 87.3857 31.783 87.3641 31.8066C87.3429 31.8321 87.3139 31.8453 87.2795 31.8453C87.2224 31.8453 87.1692 31.8426 87.1202 31.8399C87.0701 31.8359 86.9956 31.8334 86.8961 31.8334C86.5696 31.8334 86.2805 31.8944 86.0285 32.0152C85.7763 32.1358 85.5338 32.3309 85.2989 32.6002V36.5173C85.2989 36.6246 85.2458 36.6777 85.1396 36.6777H84.8518Z" fill="#252B39"/>
<path d="M90.2179 36.7402C89.7987 36.7402 89.4803 36.6272 89.2601 36.4045C89.0384 36.1815 88.9298 35.858 88.9298 35.4307V31.8545H88.0901C87.9828 31.8545 87.9297 31.8014 87.9297 31.6941V31.5878C87.9297 31.5309 87.9389 31.4884 87.9614 31.4608C87.9828 31.4315 88.0251 31.4142 88.0901 31.406L88.9509 31.3321L89.0268 29.9272C89.0333 29.8714 89.0493 29.8305 89.0731 29.805C89.0983 29.7801 89.1354 29.7681 89.1858 29.7681H89.3768C89.4844 29.7681 89.5359 29.821 89.5359 29.9272V31.3212H91.0803C91.1862 31.3212 91.2393 31.3757 91.2393 31.4805V31.6941C91.2393 31.8014 91.1862 31.8545 91.0803 31.8545H89.5359V35.4004C89.5359 35.6895 89.5985 35.8951 89.7218 36.016C89.8477 36.1379 90.0534 36.1964 90.3452 36.1964C90.5509 36.1964 90.7324 36.1791 90.8893 36.1433C90.9662 36.1301 91.0283 36.1168 91.0749 36.1076C91.1212 36.0956 91.1545 36.0902 91.1757 36.0902C91.2537 36.0902 91.2938 36.1341 91.2938 36.2189V36.378C91.2938 36.4988 91.2537 36.5744 91.1757 36.601C90.8998 36.695 90.5815 36.7402 90.2179 36.7402Z" fill="#252B39"/>
<path d="M92.5806 36.6777C92.4741 36.6777 92.4199 36.6246 92.4199 36.5173V31.4831C92.4199 31.3771 92.4741 31.3227 92.5806 31.3227H92.7941C92.9068 31.3227 92.9678 31.3771 92.9746 31.4831L93.0168 31.9407C93.3645 31.6928 93.7305 31.5004 94.1139 31.3652C94.4973 31.2311 94.8699 31.162 95.2308 31.162C95.7494 31.162 96.1447 31.2999 96.4181 31.5733C96.6915 31.8464 96.828 32.2499 96.828 32.7817V36.5173C96.828 36.6246 96.7749 36.6777 96.669 36.6777H96.3823C96.275 36.6777 96.2205 36.6246 96.2205 36.5173V33.0378C96.2205 32.5761 96.1341 32.2407 95.9564 32.0309C95.7775 31.8228 95.4949 31.718 95.1037 31.718C94.3938 31.718 93.7029 31.9448 93.0274 32.3983V36.5173C93.0274 36.6246 92.9746 36.6777 92.8683 36.6777H92.5806Z" fill="#252B39"/>
<path d="M102.045 33.6111C102.052 33.5116 102.057 33.3949 102.057 33.2597C102.057 32.7487 101.931 32.3628 101.683 32.0986C101.435 31.8374 101.069 31.7063 100.586 31.7063C99.4651 31.7063 98.872 32.3403 98.8097 33.6111H102.045ZM100.736 36.8359C99.8908 36.8359 99.2552 36.5972 98.8308 36.1182C98.4049 35.6378 98.1914 34.9268 98.1914 33.9836C98.1914 33.0898 98.4063 32.3959 98.8346 31.9025C99.2646 31.4091 99.8656 31.1622 100.64 31.1622C101.286 31.1622 101.781 31.3478 102.126 31.7155C102.468 32.0856 102.642 32.6148 102.642 33.3019C102.642 33.5859 102.626 33.7994 102.598 33.9414C102.577 34.0473 102.516 34.1021 102.418 34.1021H98.8097C98.8162 34.8461 98.9796 35.3967 99.2977 35.7508C99.6174 36.1063 100.111 36.2827 100.78 36.2827C101.29 36.2827 101.776 36.1951 102.236 36.0174C102.329 35.9816 102.392 35.9643 102.428 35.9643C102.458 35.9643 102.481 35.9762 102.502 36.0001C102.524 36.0253 102.536 36.0559 102.536 36.0916V36.251C102.536 36.365 102.495 36.4393 102.418 36.475C101.906 36.7151 101.346 36.8359 100.736 36.8359Z" fill="#252B39"/>
<path d="M104.139 36.6777C104.033 36.6777 103.979 36.6246 103.979 36.5173V31.4831C103.979 31.3771 104.033 31.3227 104.139 31.3227H104.342C104.456 31.3227 104.516 31.3771 104.522 31.4831L104.577 32.0998C104.845 31.8014 105.11 31.5917 105.369 31.466C105.629 31.3425 105.921 31.2801 106.247 31.2801C106.361 31.2801 106.453 31.2842 106.524 31.2907C106.63 31.2975 106.683 31.3557 106.683 31.4619V31.7272C106.683 31.7562 106.673 31.783 106.651 31.8066C106.63 31.8321 106.601 31.8453 106.567 31.8453C106.509 31.8453 106.457 31.8426 106.407 31.8399C106.357 31.8359 106.283 31.8334 106.183 31.8334C105.857 31.8334 105.568 31.8944 105.316 32.0152C105.064 32.1358 104.82 32.3309 104.586 32.6002V36.5173C104.586 36.6246 104.533 36.6777 104.427 36.6777H104.139Z" fill="#252B39"/>
<path d="M73.3423 48.502C73.2361 48.502 73.1816 48.4491 73.1816 48.3416V43.3073C73.1816 43.2014 73.2361 43.1466 73.3423 43.1466H73.5558C73.6685 43.1466 73.7298 43.2014 73.7363 43.3073L73.7799 43.7649C74.1264 43.517 74.4922 43.3246 74.8756 43.1894C75.259 43.055 75.6318 42.9865 75.9927 42.9865C76.5113 42.9865 76.9067 43.1241 77.1801 43.3975C77.4532 43.6706 77.59 44.0741 77.59 44.606V48.3416C77.59 48.4491 77.5366 48.502 77.4307 48.502H77.144C77.0367 48.502 76.9825 48.4491 76.9825 48.3416V44.8617C76.9825 44.4003 76.8961 44.0649 76.717 43.8552C76.5406 43.6468 76.2567 43.5419 75.8654 43.5419C75.1555 43.5419 74.4646 43.7687 73.7891 44.2226V48.3416C73.7891 48.4491 73.7363 48.502 73.6301 48.502H73.3423Z" fill="#252B39"/>
<path d="M82.8088 45.4375C82.8153 45.3381 82.8207 45.221 82.8207 45.0858C82.8207 44.5751 82.6947 44.1893 82.4468 43.9251C82.1986 43.6639 81.8323 43.5328 81.3497 43.5328C80.2288 43.5328 79.6357 44.1668 79.5737 45.4375H82.8088ZM81.4996 48.6621C80.6545 48.6621 80.0191 48.4237 79.5948 47.9446C79.1689 47.4642 78.9551 46.7533 78.9551 45.8101C78.9551 44.9162 79.1702 44.2223 79.5986 43.7286C80.0283 43.2355 80.6293 42.9887 81.4039 42.9887C82.0499 42.9887 82.5435 43.1743 82.8898 43.542C83.232 43.9118 83.4057 44.4412 83.4057 45.1284C83.4057 45.4121 83.39 45.6258 83.3621 45.7678C83.3407 45.8738 83.2797 45.9285 83.1816 45.9285H79.5737C79.5802 46.6725 79.7419 47.2231 80.0616 47.577C80.3814 47.9327 80.8748 48.1091 81.5418 48.1091C82.0542 48.1091 82.5395 48.0216 82.9998 47.8438C83.0928 47.8081 83.1564 47.7907 83.1922 47.7907C83.2212 47.7907 83.245 47.8027 83.2664 47.8265C83.2878 47.8517 83.2998 47.882 83.2998 47.9181V48.0771C83.2998 48.1912 83.2586 48.2657 83.1816 48.3015C82.6695 48.5415 82.1098 48.6621 81.4996 48.6621Z" fill="#252B39"/>
<path d="M86.3936 48.5664C85.9745 48.5664 85.6561 48.4537 85.4361 48.231C85.2142 48.008 85.1055 47.6842 85.1055 47.2572V43.6809H84.2648C84.1586 43.6809 84.1055 43.6278 84.1055 43.5202V43.414C84.1055 43.3571 84.1147 43.3146 84.1372 43.2869C84.1586 43.2577 84.2008 43.2406 84.2648 43.2325L85.1267 43.1582L85.2025 41.7534C85.209 41.6975 85.225 41.6566 85.2489 41.6312C85.2741 41.6062 85.3112 41.5943 85.3616 41.5943H85.5526C85.6602 41.5943 85.7117 41.6474 85.7117 41.7534V43.1477H87.2561C87.362 43.1477 87.4151 43.2019 87.4151 43.3067V43.5202C87.4151 43.6278 87.362 43.6809 87.2561 43.6809H85.7117V47.2268C85.7117 47.5159 85.7743 47.7216 85.8975 47.8422C86.0235 47.9641 86.2292 48.0226 86.5223 48.0226C86.7266 48.0226 86.9082 48.0055 87.0651 47.9695C87.142 47.9562 87.2041 47.9429 87.2507 47.9337C87.297 47.9218 87.3303 47.9167 87.3515 47.9167C87.4298 47.9167 87.4696 47.9603 87.4696 48.0451V48.2044C87.4696 48.325 87.4298 48.4006 87.3515 48.4271C87.0756 48.5214 86.7573 48.5664 86.3936 48.5664Z" fill="#252B39"/>
<path d="M89.8675 48.502C89.7681 48.502 89.7003 48.4529 89.6646 48.3535L87.972 43.4029C87.9427 43.3246 87.9297 43.2713 87.9297 43.2423C87.9297 43.18 87.972 43.1466 88.0581 43.1466H88.399C88.4906 43.1466 88.5518 43.1932 88.5794 43.2862L90.0374 47.8002L91.3269 43.2954C91.3613 43.1973 91.429 43.1466 91.5284 43.1466H91.9211C92.0205 43.1466 92.088 43.1973 92.1226 43.2954L93.4015 47.8305L94.8926 43.2862C94.9202 43.1932 94.9798 43.1466 95.0727 43.1466H95.3927C95.4773 43.1466 95.5198 43.18 95.5198 43.2423C95.5198 43.2713 95.5055 43.3246 95.4773 43.4029L93.7424 48.3535C93.7053 48.4529 93.6389 48.502 93.5394 48.502H93.1894C93.0899 48.502 93.0208 48.4529 92.9862 48.3535L91.6981 43.8286L90.4208 48.3535C90.3861 48.4529 90.3173 48.502 90.2192 48.502H89.8675Z" fill="#252B39"/>
<path d="M98.7005 48.1098C99.9273 48.1098 100.542 47.3471 100.542 45.8216C100.542 44.3027 99.9273 43.5427 98.7005 43.5427C97.472 43.5427 96.8577 44.3027 96.8577 45.8216C96.8577 47.3471 97.472 48.1098 98.7005 48.1098ZM98.7005 48.6631C97.9204 48.6631 97.3126 48.4135 96.8789 47.9134C96.4453 47.4121 96.2305 46.7155 96.2305 45.8216C96.2305 44.9261 96.4453 44.2312 96.8789 43.735C97.3126 43.2376 97.9204 42.9897 98.7005 42.9897C99.4802 42.9897 100.088 43.2376 100.52 43.735C100.954 44.2312 101.169 44.9261 101.169 45.8216C101.169 46.7155 100.954 47.4121 100.52 47.9134C100.088 48.4135 99.4802 48.6631 98.7005 48.6631Z" fill="#252B39"/>
<path d="M102.715 48.502C102.609 48.502 102.555 48.4491 102.555 48.3416V43.3073C102.555 43.2014 102.609 43.1466 102.715 43.1466H102.918C103.031 43.1466 103.092 43.2014 103.099 43.3073L103.152 43.924C103.421 43.6257 103.686 43.4159 103.945 43.2902C104.205 43.1667 104.497 43.1044 104.823 43.1044C104.937 43.1044 105.029 43.1084 105.101 43.1149C105.206 43.1217 105.26 43.18 105.26 43.2862V43.5514C105.26 43.5807 105.249 43.6072 105.228 43.6308C105.206 43.656 105.177 43.6696 105.143 43.6696C105.086 43.6696 105.033 43.6666 104.984 43.6641C104.933 43.6601 104.859 43.6574 104.759 43.6574C104.433 43.6574 104.144 43.7186 103.892 43.8392C103.64 43.9597 103.397 44.1548 103.162 44.4242V48.3416C103.162 48.4491 103.109 48.502 103.003 48.502H102.715Z" fill="#252B39"/>
<path d="M106.376 48.502C106.269 48.502 106.215 48.4491 106.215 48.3416V40.7842C106.215 40.6766 106.269 40.6238 106.376 40.6238H106.663C106.769 40.6238 106.822 40.6766 106.822 40.7842V45.5332L109.377 43.2542C109.448 43.184 109.538 43.1466 109.644 43.1466H110.027C110.111 43.1466 110.156 43.1799 110.156 43.2423C110.156 43.2797 110.116 43.3325 110.038 43.4029L107.462 45.6819L110.25 48.2581C110.314 48.3136 110.346 48.3613 110.346 48.3957C110.346 48.4662 110.305 48.502 110.218 48.502H109.761C109.675 48.502 109.599 48.4703 109.526 48.4063L106.822 45.8835V48.3416C106.822 48.4491 106.769 48.502 106.663 48.502H106.376Z" fill="#252B39"/>
</g>
</g>
<defs>
<clipPath id="clip0_1733_22024">
<rect width="112.896" height="39.5135" fill="white" transform="translate(10.0527 21.6934)"/>
</clipPath>
</defs>
</svg>
