<svg width="133" height="84" viewBox="0 0 133 84" fill="none" xmlns="http://www.w3.org/2000/svg">
<rect y="0.899902" width="133" height="82.9" rx="4" fill="white"/>
<path fill-rule="evenodd" clip-rule="evenodd" d="M45.1471 49.688V55.5583H43.3008V41.1665H48.2243C49.4552 41.1665 50.5125 41.5768 51.3962 42.3974C52.2799 43.218 52.7217 44.2279 52.7217 45.4272C52.7217 46.6581 52.2799 47.6838 51.3962 48.5044C50.5125 49.2934 49.4552 49.688 48.2243 49.688H45.1471ZM45.1471 42.9181V47.9363H48.2243C48.9502 47.9363 49.5656 47.6838 50.0706 47.1789C50.544 46.7054 50.7807 46.1216 50.7807 45.4272C50.7807 44.7645 50.544 44.1806 50.0706 43.6756C49.5656 43.1706 48.9502 42.9181 48.2243 42.9181H45.1471Z" fill="#767677"/>
<path fill-rule="evenodd" clip-rule="evenodd" d="M57.646 45.3794C59.0031 45.3794 60.0762 45.7423 60.8652 46.4682C61.6858 47.1941 62.0961 48.1883 62.0961 49.4508V55.5578H60.2971V54.1849H60.2024C59.4449 55.2895 58.435 55.8418 57.1725 55.8418C56.0995 55.8418 55.1842 55.5262 54.4267 54.895C53.7008 54.2638 53.3379 53.459 53.3379 52.4806C53.3379 51.4707 53.7324 50.6659 54.5214 50.0662C55.2789 49.4665 56.3046 49.1667 57.5986 49.1667C58.7033 49.1667 59.6027 49.3561 60.2971 49.7348V49.3087C60.2971 48.6775 60.0446 48.141 59.5396 47.6991C59.0346 47.2573 58.435 47.0363 57.7406 47.0363C56.7307 47.0363 55.9101 47.4624 55.2789 48.3146L53.6693 47.3204C54.553 46.0264 55.8785 45.3794 57.646 45.3794ZM55.2789 52.5279C55.2789 53.0014 55.484 53.3959 55.8943 53.7115C56.2731 54.0587 56.7465 54.2322 57.3146 54.2322C58.1036 54.2322 58.7979 53.9324 59.3976 53.3328C59.9972 52.7647 60.2971 52.0861 60.2971 51.2971C59.729 50.8552 58.9242 50.6343 57.8827 50.6343C57.1252 50.6343 56.5098 50.8079 56.0364 51.155C55.5314 51.5338 55.2789 51.9914 55.2789 52.5279Z" fill="#767677"/>
<path d="M64.1797 45.7105H65.9313V47.3201H66.026C66.5625 46.0577 67.6987 45.4265 69.4346 45.4265H69.8133V47.3675L68.9612 47.3201C68.109 47.3201 67.3989 47.5726 66.8308 48.0776C66.2943 48.6141 66.026 49.2927 66.026 50.1133V55.5575H64.1797V45.7105ZM75.6837 55.6996C74.8946 55.6996 74.2319 55.4471 73.6953 54.9421C73.1588 54.4687 72.8905 53.7901 72.8905 52.9064V47.3675H71.1389V45.7105H72.8905V42.6807H74.7368V45.7105H77.1512V47.3675H74.7368V52.291C74.7368 52.9538 74.8631 53.3956 75.1156 53.6165C75.368 53.869 75.6521 53.9953 75.9677 53.9953C76.1255 53.9953 76.2675 53.9795 76.3938 53.9479C76.5516 53.8848 76.6936 53.8375 76.8198 53.8059L77.3879 55.4628C76.9145 55.6207 76.3464 55.6996 75.6837 55.6996Z" fill="#767677"/>
<path d="M79 45.7108H80.799V47.0363H80.8937C81.1461 46.5629 81.5722 46.1684 82.1719 45.8528C82.74 45.5372 83.3396 45.3794 83.9708 45.3794C85.2017 45.3794 86.1328 45.7266 86.764 46.4209C87.4268 47.1152 87.7582 48.0936 87.7582 49.3561V55.5578H85.9119V49.4508C85.8487 47.8411 85.0281 47.0363 83.4501 47.0363C82.7242 47.0363 82.1088 47.3362 81.6038 47.9358C81.1304 48.5355 80.8937 49.2614 80.8937 50.1135V55.5578H79V45.7108Z" fill="#767677"/>
<path fill-rule="evenodd" clip-rule="evenodd" d="M94.3361 55.8418C92.8843 55.8418 91.685 55.3527 90.7381 54.3743C89.8229 53.3959 89.3652 52.1492 89.3652 50.6343C89.3652 49.1194 89.8229 47.8569 90.7381 46.847C91.6218 45.8686 92.7896 45.3794 94.2414 45.3794C95.6932 45.3794 96.8452 45.8528 97.6973 46.7996C98.581 47.7465 99.0229 49.072 99.0229 50.7763L98.9755 50.9657H91.2589C91.2589 51.9125 91.5745 52.6858 92.2057 53.2854C92.8369 53.8851 93.5786 54.1849 94.4308 54.1849C95.5985 54.1849 96.5138 53.5852 97.1766 52.3859L98.8335 53.1907C98.3917 54.0429 97.7762 54.7057 96.9872 55.1791C96.1982 55.6209 95.3145 55.8418 94.3361 55.8418ZM91.4009 49.4508H97.0345C96.9714 48.7564 96.6874 48.1883 96.1824 47.7465C95.6774 47.2731 95.0146 47.0363 94.1941 47.0363C93.4997 47.0363 92.9001 47.2573 92.3951 47.6991C91.8901 48.141 91.5587 48.7249 91.4009 49.4508Z" fill="#767677"/>
<path d="M102.528 55.5583H100.682V45.7113H102.481V47.3209H102.528C102.717 46.7844 103.112 46.3267 103.711 45.948C104.28 45.6008 104.848 45.4272 105.416 45.4272C105.952 45.4272 106.41 45.5061 106.789 45.664L106.221 47.4629C106 47.3682 105.637 47.3209 105.132 47.3209C104.437 47.3209 103.838 47.5892 103.333 48.1257C102.796 48.6938 102.528 49.3566 102.528 50.114V55.5583Z" fill="#767677"/>
<path d="M47.4695 32.7398V33.9707H50.4994C50.4047 34.7912 50.0733 35.4225 49.5052 35.8643C48.9687 36.2746 48.2901 36.4797 47.4695 36.4797C46.5543 36.4797 45.781 36.1641 45.1498 35.5329C44.5186 34.8701 44.203 34.0811 44.203 33.1658C44.203 32.219 44.5186 31.43 45.1498 30.7988C45.781 30.136 46.5543 29.8046 47.4695 29.8046C48.3532 29.8046 49.1107 30.1044 49.7419 30.7041L50.6414 29.8046C49.7577 28.984 48.7004 28.5737 47.4695 28.5737C46.649 28.5737 45.8757 28.7789 45.1498 29.1892C44.4239 29.5995 43.8558 30.1676 43.4455 30.8935C43.0352 31.5878 42.8301 32.3453 42.8301 33.1658C42.8301 33.9864 43.0352 34.7439 43.4455 35.4382C43.8558 36.1326 44.4239 36.7007 45.1498 37.1425C45.8757 37.5528 46.649 37.758 47.4695 37.758C48.732 37.758 49.7735 37.3635 50.5941 36.5744C51.3831 35.817 51.7776 34.807 51.7776 33.5446C51.7776 33.229 51.7618 32.9607 51.7303 32.7398H47.4695Z" fill="#467BBE"/>
<path fill-rule="evenodd" clip-rule="evenodd" d="M57.3155 32.6915C57.8836 33.2596 58.1677 33.9539 58.1677 34.7745C58.1677 35.6267 57.8836 36.3368 57.3155 36.9049C56.7474 37.473 56.0373 37.757 55.1852 37.757C54.3646 37.757 53.6702 37.473 53.1021 36.9049C52.534 36.3368 52.25 35.6267 52.25 34.7745C52.25 33.9539 52.534 33.2596 53.1021 32.6915C53.6702 32.1234 54.3646 31.8394 55.1852 31.8394C56.0373 31.8394 56.7474 32.1234 57.3155 32.6915ZM56.8895 34.7745C56.8895 34.2695 56.7159 33.8435 56.3687 33.4963C56.0531 33.1491 55.6586 32.9756 55.1852 32.9756C54.7118 32.9756 54.3172 33.1491 54.0016 33.4963C53.686 33.8435 53.5282 34.2695 53.5282 34.7745C53.5282 35.2795 53.686 35.7056 54.0016 36.0527C54.3172 36.3999 54.7118 36.5735 55.1852 36.5735C55.6586 36.5735 56.0531 36.3999 56.3687 36.0527C56.7159 35.7056 56.8895 35.2795 56.8895 34.7745Z" fill="#ED342C"/>
<path d="M71.7539 37.5678H73.0795V28.8569H71.7539V37.5678Z" fill="#01AB4E"/>
<path fill-rule="evenodd" clip-rule="evenodd" d="M63.8043 32.6915C64.3724 33.2596 64.6564 33.9539 64.6564 34.7745C64.6564 35.6267 64.3724 36.3368 63.8043 36.9049C63.2362 37.473 62.5261 37.757 61.6739 37.757C60.8533 37.757 60.159 37.473 59.5909 36.9049C58.9912 36.3368 58.6914 35.6267 58.6914 34.7745C58.6914 33.9539 58.9755 33.2596 59.5436 32.6915C60.1117 32.1234 60.8218 31.8394 61.6739 31.8394C62.5261 31.8394 63.2362 32.1234 63.8043 32.6915ZM63.3782 34.7745C63.3782 34.2695 63.2046 33.8435 62.8575 33.4963C62.5418 33.1491 62.1473 32.9756 61.6739 32.9756C61.2005 32.9756 60.806 33.1491 60.4904 33.4963C60.1748 33.8435 60.017 34.2695 60.017 34.7745C60.017 35.2795 60.1748 35.7056 60.4904 36.0527C60.806 36.3999 61.2005 36.5735 61.6739 36.5735C62.1473 36.5735 62.5418 36.3999 62.8575 36.0527C63.2046 35.7056 63.3782 35.2795 63.3782 34.7745Z" fill="#FCB514"/>
<path fill-rule="evenodd" clip-rule="evenodd" d="M78.1 35.7687L79.0942 36.4315C78.4945 37.3152 77.6739 37.757 76.6324 37.757C75.7803 37.757 75.0859 37.473 74.5494 36.9049C73.9813 36.3368 73.6973 35.6267 73.6973 34.7745C73.6973 33.9539 73.9655 33.2596 74.5021 32.6915C75.0386 32.1234 75.7014 31.8394 76.4904 31.8394C76.7745 31.8394 77.0427 31.8867 77.2952 31.9814C77.5793 32.0445 77.8317 32.1707 78.0527 32.3601C78.242 32.5179 78.4314 32.7073 78.6208 32.9282C78.7786 33.1807 78.9048 33.449 78.9995 33.733L79.1415 34.0644L75.2122 35.674C75.4962 36.2737 75.9697 36.5735 76.6324 36.5735C77.2321 36.5735 77.7213 36.3052 78.1 35.7687ZM74.9755 34.6798L77.6266 33.591C77.5635 33.4016 77.4215 33.2596 77.2005 33.1649C77.0112 33.0387 76.7902 32.9756 76.5378 32.9756C76.1275 32.9756 75.7645 33.1334 75.4489 33.449C75.1333 33.7961 74.9755 34.2064 74.9755 34.6798Z" fill="#ED342C"/>
<path fill-rule="evenodd" clip-rule="evenodd" d="M69.6259 32.0287H70.8568V37.331C70.8568 38.3094 70.6043 39.0668 70.0993 39.6033C69.6259 40.1399 68.9473 40.4082 68.0636 40.4082C67.748 40.4082 67.4639 40.3608 67.2115 40.2661C66.9274 40.1714 66.6749 40.061 66.454 39.9347C66.2331 39.7769 66.0279 39.5876 65.8386 39.3666C65.6808 39.1457 65.5387 38.909 65.4125 38.6565L66.5487 38.1831C66.7065 38.4987 66.9116 38.7512 67.1641 38.9406C67.4166 39.1299 67.7164 39.2246 68.0636 39.2246C69.1051 39.2246 69.6259 38.6092 69.6259 37.3783V37.0943H69.5785C69.1998 37.5361 68.679 37.757 68.0163 37.757C67.2588 37.757 66.596 37.473 66.0279 36.9049C65.4598 36.3052 65.1758 35.5951 65.1758 34.7745C65.1758 33.9855 65.4598 33.2912 66.0279 32.6915C66.596 32.1234 67.2588 31.8394 68.0163 31.8394C68.679 31.8394 69.1998 32.0603 69.5785 32.5021H69.6259V32.0287ZM69.7206 34.8219C69.7206 34.3169 69.5628 33.875 69.2471 33.4963C68.9631 33.1807 68.6001 33.0229 68.1583 33.0229C67.6849 33.0229 67.2904 33.1965 66.9748 33.5436C66.6591 33.8908 66.5013 34.3169 66.5013 34.8219C66.5013 35.3268 66.6591 35.7371 66.9748 36.0527C67.2904 36.3999 67.6849 36.5735 68.1583 36.5735C68.6001 36.5735 68.9631 36.4157 69.2471 36.1001C69.5628 35.7529 69.7206 35.3268 69.7206 34.8219Z" fill="#467BBE"/>
<path d="M26.2129 60.2925H35.6338V24.4077H26.2129V60.2925Z" fill="#467BBE"/>
</svg>
