<svg width="63" height="24" viewBox="0 0 63 24" fill="none" xmlns="http://www.w3.org/2000/svg">
<rect width="62.7" height="24" rx="3.6" fill="white"/>
<path d="M29.152 10.9364H25.6484V7.94873H23.4346V16.052H25.6484V12.8064H29.152V16.052H31.3658V7.94873H29.152V10.9364Z" fill="#EE4035"/>
<path fill-rule="evenodd" clip-rule="evenodd" d="M40.3503 12.1514C40.3503 12.2803 40.3395 12.3878 40.3395 12.6672H34.5684C34.6221 13.8494 35.31 14.5265 36.4599 14.5265C37.2229 14.5265 37.728 14.2041 37.943 13.5592H40.3395C39.8129 15.311 38.4266 16.246 36.4061 16.246C33.8806 16.246 32.2578 14.5695 32.2578 11.9472C32.2578 9.4109 33.9021 7.73438 36.3417 7.73438C38.8027 7.73438 40.3503 9.4109 40.3503 12.1514ZM38.0289 11.0444C37.9967 10.0557 37.3196 9.37866 36.3309 9.37866C35.3529 9.37866 34.7404 9.959 34.5577 11.0444H38.0289Z" fill="#EE4035"/>
<path d="M44.1223 7.87392C43.3378 8.03513 41.3281 8.63696 41.3281 11.7106V16.0524H43.5742V12.4629C43.5742 11.1303 43.7569 10.5069 44.305 10.1093C44.6489 9.84062 45.1433 9.69016 45.7129 9.69016C45.9493 9.69016 46.0461 9.70091 46.3147 9.75465V7.90616C46.3147 7.90616 45.4227 7.616 44.1223 7.87392Z" fill="#EE4035"/>
<path fill-rule="evenodd" clip-rule="evenodd" d="M54.8699 11.9902C54.8699 14.5695 53.2471 16.246 50.7538 16.246C48.239 16.246 46.6162 14.5695 46.6162 11.9902C46.6162 9.40016 48.239 7.73438 50.7538 7.73438C53.2471 7.73438 54.8699 9.40016 54.8699 11.9902ZM52.613 11.9794C52.613 10.3566 51.936 9.4324 50.7538 9.4324C49.5609 9.4324 48.8838 10.3781 48.8838 11.9902C48.8838 13.5915 49.5716 14.5587 50.7538 14.5587C51.936 14.5587 52.613 13.613 52.613 11.9794Z" fill="#EE4035"/>
<path d="M17.3629 6.94939L13.8916 4.38086V11.6888L17.3629 9.28148V6.94939Z" fill="#231F20"/>
<path d="M17.3629 17.3841V12.3652L13.8916 14.8693L17.3629 17.3841Z" fill="#231F20"/>
<path d="M7.83008 17.094L11.3014 19.6196V9.17351L7.83008 6.61572V17.094Z" fill="#EE4035"/>
</svg>
