<svg width="63" height="24" viewBox="0 0 63 24" fill="none" xmlns="http://www.w3.org/2000/svg">
<rect x="0.299805" width="62.7" height="24" rx="3.6" fill="white"/>
<g clip-path="url(#clip0_1736_15802)">
<path d="M8.42775 16.3431L8.86679 14.9241H9.72135L10.7641 10.2201H10.0349L9.83111 11.0119H8.14551L8.73351 8.58936H9.87815H10.4505H12.3948H12.4967H14.3548H15.0133H16.1266L15.6092 11.0119H13.8922L14.0412 10.2514H13.3513L12.2066 14.9241H13.2807L12.9985 16.3431H8.42775Z" fill="#253C80"/>
<path d="M17.3805 16.3431L17.0277 9.98488H16.3613V8.58936H18.925H19.3327H20.6498V10.0476H19.6149V13.897L21.8258 9.98488H21.0575V8.58936H25.0167L20.2813 16.3431H17.3805Z" fill="#253C80"/>
<path d="M23.9747 13.9759H25.4486V14.7442C25.4486 14.7442 25.4722 14.7991 26.1621 14.7991C26.8598 14.7991 27.2283 14.5952 27.2283 14.1797C27.2283 13.7407 26.9304 13.5212 26.413 13.2232C25.8563 12.9096 24.7587 12.549 24.7587 11.0672C24.7587 9.5698 26.2718 8.46436 28.6709 8.46436C29.988 8.46436 30.9366 8.77012 30.9366 8.77012C30.9366 8.77012 30.6701 9.10724 30.529 9.805C30.3878 10.5106 30.3643 10.8869 30.3643 10.8869L28.9688 10.8948V10.3146C28.9688 10.3146 28.6238 10.1735 28.42 10.1735C28.0672 10.1735 27.4557 10.3381 27.4557 10.785C27.4557 11.0124 27.5341 11.2632 28.0437 11.5533C28.5533 11.8434 29.2432 12.0943 29.6587 12.6274C30.0429 13.1213 29.9723 13.6936 29.9723 13.8191C29.9723 13.9994 29.8861 14.7442 29.1021 15.4968C28.6944 15.8888 28.1064 16.2887 27.197 16.4612C26.7501 16.5474 26.4051 16.5474 25.872 16.5474C23.9434 16.5474 23.3867 16.1868 23.3867 16.1868L23.9747 13.9759Z" fill="#253C80"/>
<path d="M34.3936 9.79705C34.3936 9.79705 34.7856 9.38937 35.4128 9.36585C36.04 9.34233 36.5731 9.70297 36.7456 9.79705C36.918 9.89113 37.4904 10.2753 37.6942 10.3615C37.898 10.4399 37.9608 10.4791 38.2587 10.4791C38.5566 10.4791 38.6585 10.4321 38.8624 10.3458C39.0584 10.2518 39.2936 10.1498 39.7404 10.1498C40.3441 10.1498 40.791 10.338 40.791 10.338C40.791 10.338 40.1795 10.3145 39.3484 10.7535C38.5174 11.1926 38.0705 11.4905 37.6001 11.4905C37.1219 11.4905 36.7612 11.0985 36.4163 10.8084C36.0792 10.5183 35.8832 10.4556 35.8048 10.4242C35.7264 10.3929 35.5931 10.3694 35.5931 10.3694C35.5931 10.3694 35.7028 10.3694 35.8675 10.3145C36.0321 10.2596 36.1105 10.2126 36.1105 10.2126C36.1105 10.2126 35.891 9.91465 35.3422 9.82057C34.9032 9.75785 34.3936 9.79705 34.3936 9.79705Z" fill="#EE313C"/>
<path d="M32.3945 16.0064L33.9312 15.6458V15.9829C33.9312 15.9829 34.6917 15.9202 35.4051 15.5987C36.1185 15.2773 36.4792 14.9402 36.7928 14.6031C37.1064 14.2659 37.2397 14.0935 37.3573 13.9523C37.4749 13.8034 37.5611 13.6858 37.5611 13.6858C37.5611 13.6858 38.055 13.6309 38.447 13.2859C38.839 12.941 39.3094 12.1491 39.4505 11.9296C39.5917 11.7101 39.8112 11.2319 40.2581 10.9418C40.7049 10.6517 41.144 10.6517 41.2537 10.6517C42.2181 10.6517 43.1118 11.569 44.4054 11.569C45.1581 11.569 46.0048 11.1927 46.5536 10.785C47.1024 10.3773 47.3689 10.1421 47.7217 9.84417C48.0824 9.54625 48.9605 8.90337 49.7758 8.90337C50.011 8.90337 50.6225 8.96609 50.6225 8.96609L51.1165 8.33105L51.2341 9.38945L52.8569 11.1456L52.5747 11.5455H51.5006V11.3024C51.5006 11.3024 51.0145 10.9104 50.4971 10.9104C49.9797 10.9104 49.7053 11.2867 49.7053 11.569C49.7053 11.8512 49.9953 12.1962 50.4893 12.5176C51.0929 12.9096 52.1513 13.6387 52.5904 13.968C53.0529 14.3051 53.7899 14.8853 54.2525 15.293C54.9973 15.9437 55.1933 16.3592 55.1933 16.3592L53.7115 16.1162L53.8605 15.8104C53.8605 15.8104 53.5704 15.5439 53.2019 15.293C52.8805 15.0735 52.4885 14.8696 52.2454 14.7755C51.7201 14.5717 51.1086 14.3992 50.6382 14.3443C50.1678 14.2895 49.6347 14.2346 48.9997 14.3757C48.3646 14.5168 48.0275 14.8147 48.0275 14.8147L47.5022 14.4227C47.5022 14.4227 46.632 14.7207 45.5814 14.7207C44.719 14.7207 43.8174 14.509 43.2294 14.3051C42.8139 14.164 42.563 13.9994 42.563 13.9994C42.563 13.9994 41.975 14.6109 40.1953 14.6109C39.0429 14.6109 38.6195 14.5482 38.6195 14.5482C38.6195 14.5482 37.8904 15.2067 36.8555 15.685C35.8206 16.1632 35.0601 16.3749 34.2291 16.3749C33.1393 16.3592 32.3945 16.0064 32.3945 16.0064Z" fill="#EE313C"/>
<path d="M50.5908 8.64448L51.022 8.22112C51.022 8.22112 50.1988 7.40576 49.0934 7.40576C47.4783 7.40576 46.5297 8.22896 46.5297 8.22896L46.7884 8.50336C46.7884 8.50336 46.5218 8.62096 46.0828 8.92672C45.5575 9.2952 45.3772 9.49904 45.3772 9.49904L46.0122 9.43632C46.0122 9.43632 45.6594 9.9224 45.3694 10.189C45.0793 10.4555 44.8206 10.5966 44.2953 10.7142C43.7622 10.8318 43.6367 10.8005 43.6367 10.8005C43.6367 10.8005 43.9268 10.9024 44.3737 10.9024C44.8284 10.9024 45.291 10.8554 46.0044 10.3379C46.7257 9.82048 47.7606 9.01296 48.3956 8.7464C49.0306 8.47984 49.4462 8.472 49.5951 8.472C50.4418 8.46416 50.5908 8.64448 50.5908 8.64448Z" fill="#EE313C"/>
</g>
<defs>
<clipPath id="clip0_1736_15802">
<rect width="47.04" height="9.1728" fill="white" transform="translate(8.12988 7.41357)"/>
</clipPath>
</defs>
</svg>
