<svg width="105" height="40" viewBox="0 0 105 40" fill="none" xmlns="http://www.w3.org/2000/svg">
<rect width="104.5" height="40" rx="6" fill="white"/>
<path d="M41.5718 22.825H47.9685L48.415 20.4033H45.2472L45.4184 19.4371H48.152L48.5678 17.1805H45.8342L45.9932 16.3182H48.9042L49.3445 13.8965H43.2229L41.5718 22.825Z" fill="#D73328"/>
<path d="M41.5718 22.825H47.9685L48.415 20.4033H45.2472L45.4184 19.4371H48.152L48.5678 17.1805H45.8342L45.9932 16.3182H48.9042L49.3445 13.8965H43.2229L41.5718 22.825Z" stroke="#D73328" stroke-width="0.122309" stroke-miterlimit="10"/>
<path d="M49.687 22.825H52.9771L54.6222 13.8965H51.3382L49.687 22.825Z" fill="#D73328"/>
<path d="M49.687 22.825H52.9771L54.6222 13.8965H51.3382L49.687 22.825Z" stroke="#D73328" stroke-width="0.122309" stroke-miterlimit="10"/>
<path d="M56.4506 15.4316C55.6373 16.3795 55.2275 17.5537 55.2275 18.8807C55.2275 20.1283 55.729 21.278 56.5852 22.0241C57.3618 22.7029 58.3586 23.0576 59.4717 23.0576C60.022 23.0576 60.5602 22.9597 61.1045 22.7641L61.7038 19.5412C61.1351 19.902 60.5113 20.0916 60.0098 20.0916C59.0619 20.0916 58.4504 19.5045 58.4504 18.5505C58.4504 17.4436 59.2454 16.6425 60.3706 16.6425C60.9577 16.6425 61.5326 16.8321 62.1441 17.1807L62.6945 14.1963C62.0218 13.86 61.2696 13.6826 60.4195 13.6826C58.7928 13.6826 57.3985 14.3186 56.4506 15.4316Z" fill="#D73328"/>
<path d="M56.4506 15.4316C55.6373 16.3795 55.2275 17.5537 55.2275 18.8807C55.2275 20.1283 55.729 21.278 56.5852 22.0241C57.3618 22.7029 58.3586 23.0576 59.4717 23.0576C60.022 23.0576 60.5602 22.9597 61.1045 22.7641L61.7038 19.5412C61.1351 19.902 60.5113 20.0916 60.0098 20.0916C59.0619 20.0916 58.4504 19.5045 58.4504 18.5505C58.4504 17.4436 59.2454 16.6425 60.3706 16.6425C60.9577 16.6425 61.5326 16.8321 62.1441 17.1807L62.6945 14.1963C62.0218 13.86 61.2696 13.6826 60.4195 13.6826C58.7928 13.6826 57.3985 14.3186 56.4506 15.4316Z" stroke="#D73328" stroke-width="0.122309" stroke-miterlimit="10"/>
<path d="M68.9572 16.9787H67.1959L67.7585 13.8965H64.5296L62.8784 22.825H66.1135L66.7128 19.6144H68.4741L67.8747 22.825H71.1037L72.7671 13.8965H69.5198L68.9572 16.9787Z" fill="#D73328"/>
<path d="M68.9572 16.9787H67.1959L67.7585 13.8965H64.5296L62.8784 22.825H66.1135L66.7128 19.6144H68.474L67.8747 22.825H71.1037L72.7671 13.8965H69.5198L68.9572 16.9787Z" stroke="#D73328" stroke-width="0.122309" stroke-miterlimit="10"/>
<path d="M80.1483 16.3182L80.5825 13.8965H74.4671L72.8159 22.825H79.2066L79.6591 20.4033H76.4852L76.6625 19.4371H79.3961L79.8059 17.1805H77.0723L77.2374 16.3182H80.1483Z" fill="#D73328"/>
<path d="M80.1483 16.3182L80.5825 13.8965H74.4671L72.8159 22.825H79.2066L79.6591 20.4033H76.4852L76.6625 19.4371H79.3961L79.8059 17.1805H77.0723L77.2374 16.3182H80.1483Z" stroke="#D73328" stroke-width="0.122309" stroke-miterlimit="10"/>
<path fill-rule="evenodd" clip-rule="evenodd" d="M87.5785 19.3882L88.8689 22.825H85.5543L84.5819 19.5777L83.9826 22.825H80.7598L82.4109 13.8965H85.8478C88.453 13.8965 89.78 14.8444 89.78 16.5812C89.78 18.0672 88.9789 19.0885 87.5785 19.3882ZM86.5694 16.8686C86.5694 16.3427 86.2086 16.1164 85.4075 16.1164H85.2179L84.8938 17.8532H85.1323C86.1047 17.8532 86.5694 17.5535 86.5694 16.8686Z" fill="#D73328"/>
<path d="M85.1325 17.853H84.894L85.2182 16.1162H85.4077C86.2089 16.1162 86.5697 16.3425 86.5697 16.8684C86.5697 17.5533 86.1049 17.853 85.1325 17.853Z" stroke="#D73328" stroke-width="0.122309" stroke-miterlimit="10"/>
<path d="M89.78 16.5812C89.78 14.8444 88.453 13.8965 85.8478 13.8965H82.4109L80.7598 22.825H83.9826L84.5819 19.5777L85.5543 22.825H88.8689L87.5785 19.3882C88.9789 19.0885 89.78 18.0672 89.78 16.5812Z" stroke="#D73328" stroke-width="0.122309" stroke-miterlimit="10"/>
<path d="M35.365 15.3946C35.365 15.2295 35.2305 15.0889 35.0654 15.0889L26.516 15.095C26.3508 15.095 26.2163 15.2295 26.2163 15.3946C26.2163 15.5598 26.3508 15.7004 26.516 15.7004L35.0654 15.6943C35.2305 15.6943 35.365 15.5598 35.365 15.3946Z" fill="#D73328"/>
<path d="M35.365 15.3946C35.365 15.2295 35.2305 15.0889 35.0654 15.0889L26.516 15.095C26.3508 15.095 26.2163 15.2295 26.2163 15.3946C26.2163 15.5598 26.3508 15.7004 26.516 15.7004L35.0654 15.6943C35.2305 15.6943 35.365 15.5598 35.365 15.3946Z" stroke="#D73328" stroke-width="0.122309" stroke-miterlimit="10"/>
<path d="M37.3769 17.7862C37.3769 17.615 37.2423 17.4805 37.0772 17.4805H30.0812C29.9099 17.4805 29.7754 17.6211 29.7754 17.7862C29.7754 17.9514 29.9099 18.0859 30.0812 18.0859H37.0772C37.2423 18.0859 37.3769 17.9514 37.3769 17.7862Z" fill="#D73328"/>
<path d="M37.3769 17.7862C37.3769 17.615 37.2423 17.4805 37.0772 17.4805H30.0812C29.9099 17.4805 29.7754 17.6211 29.7754 17.7862C29.7754 17.9514 29.9099 18.0859 30.0812 18.0859H37.0772C37.2423 18.0859 37.3769 17.9514 37.3769 17.7862Z" stroke="#D73328" stroke-width="0.122309" stroke-miterlimit="10"/>
<path d="M37.811 18.9784C37.811 18.8133 37.6765 18.6787 37.5113 18.6787H31.3714C31.2063 18.6787 31.0718 18.8133 31.0718 18.9784C31.0718 19.1496 31.2063 19.2841 31.3714 19.2841H37.5113C37.6765 19.2841 37.811 19.1496 37.811 18.9784Z" fill="#D73328"/>
<path d="M37.811 18.9784C37.811 18.8133 37.6765 18.6787 37.5113 18.6787H31.3714C31.2063 18.6787 31.0718 18.8133 31.0718 18.9784C31.0718 19.1496 31.2063 19.2841 31.3714 19.2841H37.5113C37.6765 19.2841 37.811 19.1496 37.811 18.9784Z" stroke="#D73328" stroke-width="0.122309" stroke-miterlimit="10"/>
<path d="M37.9942 20.1717C37.9942 20.0066 37.8597 19.8721 37.6946 19.8721H32.4964C32.3313 19.8721 32.1968 20.0066 32.1968 20.1778C32.1968 20.343 32.3313 20.4775 32.4964 20.4775H37.6946C37.8597 20.4775 37.9942 20.343 37.9942 20.1717Z" fill="#D73328"/>
<path d="M37.9942 20.1717C37.9942 20.0066 37.8597 19.8721 37.6946 19.8721H32.4964C32.3313 19.8721 32.1968 20.0066 32.1968 20.1778C32.1968 20.343 32.3313 20.4775 32.4964 20.4775H37.6946C37.8597 20.4775 37.9942 20.343 37.9942 20.1717Z" stroke="#D73328" stroke-width="0.122309" stroke-miterlimit="10"/>
<path d="M37.6519 21.0645H33.5301C33.365 21.0645 33.2305 21.2051 33.2305 21.3702C33.2305 21.5353 33.365 21.6699 33.5301 21.6699H37.6519C37.8171 21.6699 37.9516 21.5353 37.9516 21.3702C37.9516 21.2051 37.8171 21.0645 37.6519 21.0645Z" fill="#D73328"/>
<path d="M37.6519 21.0645H33.5301C33.365 21.0645 33.2305 21.2051 33.2305 21.3702C33.2305 21.5353 33.365 21.6699 33.5301 21.6699H37.6519C37.8171 21.6699 37.9516 21.5353 37.9516 21.3702C37.9516 21.2051 37.8171 21.0645 37.6519 21.0645Z" stroke="#D73328" stroke-width="0.122309" stroke-miterlimit="10"/>
<path d="M37.2971 22.2627H34.4901C34.325 22.2627 34.1904 22.3972 34.1904 22.5624C34.1904 22.7336 34.325 22.8681 34.4901 22.8681H37.2971C37.4683 22.8681 37.6028 22.7336 37.6028 22.5624C37.6028 22.3972 37.4683 22.2627 37.2971 22.2627Z" fill="#D73328"/>
<path d="M37.2971 22.2627H34.4901C34.325 22.2627 34.1904 22.3972 34.1904 22.5624C34.1904 22.7336 34.325 22.8681 34.4901 22.8681H37.2971C37.4683 22.8681 37.6028 22.7336 37.6028 22.5624C37.6028 22.3972 37.4683 22.2627 37.2971 22.2627Z" stroke="#D73328" stroke-width="0.122309" stroke-miterlimit="10"/>
<path d="M36.6186 16.5877C36.6186 16.4226 36.484 16.2881 36.3189 16.2881H28.5707C28.4055 16.2881 28.271 16.4226 28.271 16.5877C28.271 16.759 28.4055 16.8935 28.5707 16.8935H36.3189C36.484 16.8935 36.6186 16.759 36.6186 16.5877Z" fill="#D73328"/>
<path d="M36.6186 16.5877C36.6186 16.4226 36.484 16.2881 36.3189 16.2881H28.5707C28.4055 16.2881 28.271 16.4226 28.271 16.5877C28.271 16.759 28.4055 16.8935 28.5707 16.8935H36.3189C36.484 16.8935 36.6186 16.759 36.6186 16.5877Z" stroke="#D73328" stroke-width="0.122309" stroke-miterlimit="10"/>
<path d="M23.0175 20.067C22.9136 20.0609 22.7912 20.1342 22.724 20.281C22.6261 20.4828 22.3937 20.7274 21.984 20.8253C21.4459 20.9537 20.9016 20.8131 20.4796 20.9659C20.076 21.1127 19.2321 21.4491 19.1709 21.4858C19.1159 21.5224 19.0792 21.5958 19.0608 21.6386C19.0608 21.6386 19.0119 21.8771 18.6756 21.8771C18.6389 21.8771 18.3209 21.8894 18.168 21.8894C17.8377 21.9199 17.8928 21.7243 17.9172 21.6937C17.9295 21.6753 18.5288 21.2534 18.5288 21.2534C18.5899 21.2167 18.6083 21.1005 18.5532 21.021C18.4921 20.9415 18.382 20.917 18.2964 20.9721C18.2964 20.9721 17.3913 21.6203 17.3607 21.6325C17.2873 21.6753 17.2384 21.6019 17.2384 21.6019C17.0978 21.4307 17.11 21.1066 17.0244 20.7641C16.9204 20.3789 17.1834 20.067 17.3669 19.9263L19.7641 17.8654C19.7335 17.6453 19.8191 17.4679 20.0821 17.2844C20.1066 17.2722 23.8553 14.4591 23.9104 14.4163C24.4302 14.0066 24.4424 14.4469 24.3629 14.5692C24.3079 14.6487 24.3323 14.7955 24.4608 14.8505C24.528 14.875 24.632 14.8627 24.8888 14.7526C25.2007 14.6242 25.9346 14.5019 26.2465 14.5019H32.1601C32.3252 14.5019 32.4659 14.3674 32.4659 14.2023C32.4659 14.031 32.3252 13.8965 32.1601 13.8965H21.4275C17.7582 13.8965 14.7861 16.4222 14.7861 20.1037C14.7861 23.7852 17.7582 26.3965 21.0973 26.3965L25.9407 26.3903C26.0875 26.3903 26.2037 26.2741 26.2037 26.1274C26.2037 26.0295 26.0997 25.9378 26.0447 25.8828C24.0938 24.2194 23.8676 20.122 23.0175 20.067Z" fill="#D73328"/>
<path d="M23.0175 20.067C22.9136 20.0609 22.7912 20.1342 22.724 20.281C22.6261 20.4828 22.3937 20.7274 21.984 20.8253C21.4459 20.9537 20.9016 20.8131 20.4796 20.9659C20.076 21.1127 19.2321 21.4491 19.1709 21.4858C19.1159 21.5224 19.0792 21.5958 19.0608 21.6386C19.0608 21.6386 19.0119 21.8771 18.6756 21.8771C18.6389 21.8771 18.3209 21.8894 18.168 21.8894C17.8377 21.9199 17.8928 21.7243 17.9172 21.6937C17.9295 21.6753 18.5288 21.2534 18.5288 21.2534C18.5899 21.2167 18.6083 21.1005 18.5532 21.021C18.4921 20.9415 18.382 20.917 18.2964 20.9721C18.2964 20.9721 17.3913 21.6203 17.3607 21.6325C17.2873 21.6753 17.2384 21.6019 17.2384 21.6019C17.0978 21.4307 17.11 21.1066 17.0244 20.7641C16.9204 20.3789 17.1834 20.067 17.3669 19.9263L19.7641 17.8654C19.7335 17.6453 19.8191 17.4679 20.0821 17.2844C20.1066 17.2722 23.8553 14.4591 23.9104 14.4163C24.4302 14.0066 24.4424 14.4469 24.3629 14.5692C24.3079 14.6487 24.3323 14.7955 24.4608 14.8505C24.528 14.875 24.632 14.8627 24.8888 14.7526C25.2007 14.6242 25.9346 14.5019 26.2465 14.5019H32.1601C32.3252 14.5019 32.4659 14.3674 32.4659 14.2023C32.4659 14.031 32.3252 13.8965 32.1601 13.8965H21.4275C17.7582 13.8965 14.7861 16.4222 14.7861 20.1037C14.7861 23.7852 17.7582 26.3965 21.0973 26.3965L25.9407 26.3903C26.0875 26.3903 26.2037 26.2741 26.2037 26.1274C26.2037 26.0295 26.0997 25.9378 26.0447 25.8828C24.0938 24.2194 23.8676 20.122 23.0175 20.067Z" stroke="#D73328" stroke-width="0.122309" stroke-miterlimit="10"/>
</svg>
