<svg width="105" height="40" viewBox="0 0 105 40" fill="none" xmlns="http://www.w3.org/2000/svg">
<rect x="0.5" width="104.5" height="40" rx="6" fill="white"/>
<path d="M86.8047 33.2285V7.9775H13.5498V33.2285H86.8047Z" fill="#186DBF"/>
<path d="M50.1772 32.5713C70.1157 32.5713 86.2795 27.2129 86.2795 20.6029C86.2795 13.9928 70.1157 8.63388 50.1772 8.63388C30.2387 8.63388 14.0747 13.9928 14.0747 20.6029C14.0747 27.2129 30.2387 32.5713 50.1772 32.5713Z" fill="#FEEA13"/>
<path d="M30.257 25.5742C30.4281 25.5742 30.4966 25.5059 30.4053 25.4031C30.3338 25.3226 30.2113 24.7756 30.2113 24.1936V17.3939C30.2113 16.8117 30.3338 16.2648 30.4053 16.1845C30.4966 16.0815 30.4281 16.0132 30.257 16.0132H24.1073C23.9362 16.0132 23.8677 16.0815 23.959 16.1845C24.0305 16.2648 24.153 16.8117 24.153 17.3939V24.1936C24.153 24.7756 24.0305 25.3226 23.959 25.4031C23.8677 25.5059 23.9362 25.5742 24.1073 25.5742H30.257Z" fill="#1A68BB"/>
<path d="M39.5157 19.4261L41.7537 16.3897C41.845 16.2983 41.7994 16.1729 41.7994 16.1158C41.7994 16.0587 41.7994 16.0132 41.845 16.0132H47.9148C47.9947 16.0132 47.9605 16.0703 47.9262 16.1158L45.4276 19.607C45.3134 19.7555 45.3362 19.8926 45.4504 20.0408L48.8846 25.4714C48.9187 25.5171 48.9529 25.5742 48.8731 25.5742H41.4571C41.4115 25.5742 41.4115 25.5284 41.4115 25.4714C41.4115 25.4146 41.5256 24.9237 41.4343 24.8326L39.5176 21.8994L39.5175 24.1936C39.5175 24.7756 39.6398 25.3226 39.7114 25.4031C39.8027 25.5059 39.7343 25.5742 39.5631 25.5742H33.5961C33.425 25.5742 33.3565 25.5059 33.4478 25.4031C33.5192 25.3226 33.6416 24.7756 33.6416 24.1936V17.3939C33.6416 16.8117 33.5192 16.2648 33.4478 16.1845C33.3565 16.0815 33.425 16.0132 33.5961 16.0132H39.5631C39.7343 16.0132 39.8027 16.0815 39.7114 16.1845C39.6398 16.2648 39.5175 16.8117 39.5175 17.3939L39.5157 19.4261Z" fill="#1A68BB"/>
<path d="M56.7341 22.0248C56.7341 21.9866 56.7488 21.8534 56.9058 21.8534H59.267C59.511 21.8534 60.3885 21.8236 60.4639 21.8988C60.5393 21.9744 60.6329 21.9274 60.6329 21.7842V19.4925C60.6329 19.3493 60.5393 19.3021 60.4639 19.3777C60.3885 19.4531 59.511 19.4232 59.267 19.4232H56.9054C56.7488 19.4232 56.7341 19.2899 56.7341 19.2517L56.7345 18.7875C56.7345 18.7493 56.7492 18.6158 56.9063 18.6158H60.3002C60.8756 18.6158 61.4172 18.7371 61.4966 18.8079C61.5983 18.8981 61.6657 18.8304 61.6657 18.6611V16.0122H50.9751C50.8057 16.0122 50.7379 16.0974 50.8284 16.1991C50.8991 16.2785 51.0202 16.8201 51.0202 17.396V24.1244C51.0202 24.7002 50.8991 25.2414 50.8284 25.321C50.7379 25.4226 50.8053 25.4902 50.9747 25.4902L61.6652 25.4897V22.6756C61.6652 22.5064 61.5974 22.4385 61.4961 22.5287C61.4163 22.5997 60.8752 22.721 60.2993 22.721H56.9054C56.7484 22.721 56.7336 22.5876 56.7336 22.5493L56.7341 22.0248Z" fill="#1A68BB"/>
<path d="M78.6044 25.4902C78.6044 25.4902 75.054 17.052 75.0027 16.912C74.9518 16.7719 74.901 16.5301 74.9902 16.3138C75.0794 16.0974 75.0027 16.0465 74.8501 16.0465H66.5389C66.3859 16.0465 66.3096 16.0974 66.3988 16.3138C66.4876 16.5301 66.4368 16.7719 66.3859 16.912C66.335 17.052 63.1914 25.4902 63.1914 25.4902H68.3019C68.4228 25.4902 68.4477 25.4331 68.4098 25.3505C68.3715 25.2675 68.3715 25.0767 68.4286 24.9366L68.7025 24.0266C68.7917 23.7722 68.9188 23.7339 69.1352 23.7339H71.3817C71.5981 23.7339 71.7252 23.7722 71.8144 24.0266L72.0883 24.9366C72.1454 25.0767 72.1454 25.2675 72.1071 25.3505C72.0691 25.4331 72.0946 25.4902 72.2155 25.4902H78.6044ZM69.546 21.8694C69.4662 21.8629 69.4568 21.78 69.4791 21.7228L70.0323 20.4119C70.055 20.3741 70.068 20.3354 70.1152 20.3354C70.163 20.3354 70.1759 20.3741 70.1978 20.4119L70.7514 21.7228C70.7737 21.78 70.7643 21.8629 70.6849 21.8694H69.546Z" fill="#1A68BB"/>
<path d="M89.6658 8.86467C89.9994 8.86467 90.2979 8.84103 90.2979 8.44133C90.2979 8.11924 90.0057 8.05947 89.7309 8.05947H89.1942V8.86467H89.6658ZM89.1942 10.3261H88.8008V7.72534H89.7907C90.4049 7.72534 90.7092 7.95196 90.7092 8.46497C90.7092 8.93025 90.417 9.13322 90.0356 9.18095L90.7748 10.3261H90.3336L89.6475 9.19879H89.1942V10.3261ZM89.6716 10.9047C90.6918 10.9047 91.4965 10.1057 91.4965 9.01991C91.4965 7.95196 90.6918 7.14676 89.6716 7.14676C88.6397 7.14676 87.8341 7.95196 87.8341 9.01991C87.8341 10.1057 88.6397 10.9047 89.6716 10.9047ZM87.3809 9.01991C87.3809 7.72534 88.431 6.77115 89.6716 6.77115C90.9001 6.77115 91.9498 7.72534 91.9498 9.01991C91.9498 10.3261 90.9001 11.2803 89.6716 11.2803C88.431 11.2803 87.3809 10.3261 87.3809 9.01991Z" fill="#1A68BB"/>
</svg>
