<svg width="105" height="40" viewBox="0 0 105 40" fill="none" xmlns="http://www.w3.org/2000/svg">
<rect width="104.5" height="40" rx="6" fill="white"/>
<g clip-path="url(#clip0_1733_17477)">
<mask id="mask0_1733_17477" style="mask-type:luminance" maskUnits="userSpaceOnUse" x="13" y="11" width="79" height="18">
<path d="M91.4498 11.04H13.0498V28.9599H91.4498V11.04Z" fill="white"/>
</mask>
<g mask="url(#mask0_1733_17477)">
<path fill-rule="evenodd" clip-rule="evenodd" d="M52.1588 21.1438C52.1588 21.1438 50.5143 20.6555 49.317 21.4797C49.1471 21.5852 49.0045 21.7063 48.899 21.8449C48.8971 21.8469 48.8951 21.8489 48.8912 21.8528C48.8834 21.8645 48.8737 21.8762 48.8658 21.8879L47.651 23.4387C47.4166 23.6848 47.194 23.8664 46.8522 23.9035C46.8444 23.9035 46.8366 23.9035 46.8307 23.9055C46.8014 23.9113 46.7721 23.9152 46.7448 23.9172L45.3444 23.9289C45.2409 23.9289 45.1393 23.9289 45.0377 23.9289C44.3229 23.9406 44.3659 23.4016 44.8405 22.5207C45.0123 22.1457 45.1862 21.7727 45.36 21.3996C46.3014 19.3645 48.6686 14.0149 48.6686 14.0149C48.7369 13.8489 48.6412 13.7532 48.4342 13.759C48.3951 13.759 46.4342 13.7493 46.067 13.7512C46.0397 13.7512 46.0123 13.7512 45.985 13.7512C45.9342 13.7551 45.8854 13.7551 45.8385 13.7571C45.8366 13.7571 45.8346 13.7571 45.8327 13.7571C45.8287 13.7571 45.8248 13.7571 45.8209 13.7571C45.7369 13.759 45.6569 13.7669 45.5827 13.804C45.4752 13.8469 45.3815 13.9153 45.3092 14.0012C45.2897 14.0208 45.2741 14.0403 45.2604 14.0598C45.2565 14.0676 45.2506 14.0755 45.2467 14.0813C45.2428 14.0872 45.2389 14.0969 45.235 14.1047C45.2155 14.138 45.1998 14.1731 45.1862 14.2102C44.5123 15.6516 41.3854 22.3332 39.776 25.6633C39.7506 25.7297 39.7311 25.7902 39.7135 25.8469C39.696 25.884 39.6667 25.9543 39.653 26.0422C39.653 26.0461 39.5612 26.4289 40.0671 26.4602C40.069 26.4602 44.1998 26.4836 46.9635 26.4875H48.7994C49.1315 26.4875 49.4303 26.3469 49.6412 26.1223C49.6959 26.0676 49.7486 26.009 49.7936 25.9348C50.069 25.4953 50.4303 24.843 50.8404 24.0988C51.3756 23.1535 52.44 21.2453 52.4479 21.2297C52.3521 21.1965 52.2545 21.1672 52.1529 21.1438" fill="#223C8C"/>
<path fill-rule="evenodd" clip-rule="evenodd" d="M89.5176 17.3291C89.4453 16.5322 89.2285 15.8369 88.8633 15.2412C88.502 14.6455 88.0039 14.1826 87.3711 13.8545C86.7383 13.5264 85.9863 13.3604 85.1172 13.3604C83.6016 13.3604 82.1817 13.8799 80.8555 14.917C80.0586 15.5342 79.3907 16.2764 78.8536 17.1435C78.3165 18.0107 77.9258 18.9326 77.6798 19.9072C77.17 21.9384 77.2969 23.5615 78.0587 24.7783C78.4415 25.3896 78.959 25.8525 79.6094 26.1669C80.2618 26.4814 80.9903 26.6396 81.7989 26.6396C82.5332 26.6396 83.2618 26.5126 83.9864 26.2607C84.711 26.0087 85.3946 25.6279 86.0371 25.122C86.8516 24.4853 87.5313 23.7138 88.0762 22.8076C88.6211 21.9013 89.0215 20.9345 89.2793 19.9091C89.5117 18.9873 89.5898 18.1279 89.5176 17.331M86.0918 19.9365C85.9297 20.5791 85.6895 21.1787 85.3711 21.7373C85.0528 22.2939 84.6543 22.7451 84.1758 23.0927C83.6973 23.4404 83.1582 23.6142 82.5586 23.6142C81.9688 23.6142 81.5196 23.4365 81.2149 23.083C80.9102 22.7275 80.7364 22.2685 80.6915 21.7021C80.6485 21.1377 80.7032 20.5498 80.8575 19.9345C81.1407 18.8115 81.625 17.9287 82.3086 17.2881C82.6016 17.0146 82.9297 16.7959 83.293 16.6338C83.6543 16.4717 84.0039 16.3896 84.3418 16.3896C84.9278 16.3896 85.3789 16.5556 85.6934 16.8857C86.0098 17.2158 86.1914 17.6513 86.2442 18.1963C86.2969 18.7412 86.2442 19.3213 86.0918 19.9365Z" fill="#223C8C"/>
<path fill-rule="evenodd" clip-rule="evenodd" d="M52.5709 25.5068L52.4108 25.7842C52.4108 25.7842 52.2662 26.0224 52.3561 26.2158C52.3561 26.2158 52.4108 26.4521 52.7057 26.4717C52.7194 26.4717 52.7311 26.4736 52.7448 26.4756H54.6412H55.0651C55.0651 26.4756 55.3541 26.4424 55.5182 26.2178L55.5768 26.1162L57.2311 23.083C57.1744 23.0986 56.7877 23.1572 56.651 23.1807C55.3658 23.3994 54.0866 23.415 52.5709 25.5088" fill="#223C8C"/>
<path fill-rule="evenodd" clip-rule="evenodd" d="M58.9028 19.917L60.0688 17.7959L60.5083 19.9775C60.893 19.9931 61.2934 20.0049 61.7153 20.0107C62.3579 20.0185 63.0219 19.9248 63.6508 19.7119L62.4008 14.0713C62.3657 13.8799 62.2895 13.7393 62.1059 13.7295L59.7856 13.7373C59.7856 13.7373 59.7837 13.7373 59.7817 13.7373C59.7661 13.7373 59.7505 13.7334 59.7329 13.7334C59.5532 13.7334 59.397 13.8291 59.3091 13.9736C59.2876 13.999 59.2661 14.0283 59.2485 14.0635L55.6548 20.1884C56.7407 19.915 57.772 19.8838 58.9028 19.915" fill="#223C8C"/>
<path fill-rule="evenodd" clip-rule="evenodd" d="M39.8852 19.354C40.0356 18.8892 39.7036 18.7818 39.4712 18.7622H38.4497C38.3833 18.7622 38.3169 18.7622 38.2524 18.7622C37.6294 18.7622 37.2681 18.7622 36.8286 18.7622C36.8188 18.7622 36.8091 18.7622 36.7993 18.7622H36.5767C36.5278 18.7603 36.4829 18.7564 36.4419 18.7525C36.2231 18.7075 36.0474 18.5474 35.977 18.3384C35.977 18.3365 35.977 18.3345 35.977 18.3306C35.9321 18.1822 35.9712 18.0279 36.0044 17.9361C36.1665 17.5923 36.3149 17.2759 36.4399 16.9517C36.6528 16.4029 36.9966 16.1587 37.5474 16.1353V16.1294H42.2661C42.4614 16.1353 42.7094 16.0494 42.7758 15.8619L43.4672 14.3892C43.6137 13.9244 43.2505 13.8013 43.1215 13.7837C43.0766 13.7798 43.0297 13.7759 42.979 13.7759C42.5083 13.772 42.0473 13.7701 41.5883 13.7681C39.4263 13.7564 37.3638 13.7525 35.1978 13.7681C34.7564 13.8228 34.5103 14.1236 34.395 14.3248C34.3325 14.4302 34.3091 14.5083 34.3091 14.5083L33.0864 17.1119C33.0669 17.1587 33.0474 17.2056 33.0259 17.2564C32.9634 17.397 32.8911 17.5318 32.8247 17.6724C31.7896 19.8892 30.7368 22.0982 29.7271 24.3247L29.6939 24.397L29.565 24.688L28.9751 26.0259C28.9556 26.1059 28.9497 26.2056 28.9947 26.3091C28.9947 26.3091 29.0494 26.4595 29.3677 26.479L37.6509 26.4731C37.6684 26.4731 37.7934 26.4731 37.8403 26.4731C37.8559 26.4731 37.8716 26.4692 37.8872 26.4673C37.895 26.4673 37.9028 26.4692 37.9106 26.4692C38.0688 26.4692 38.2036 26.3774 38.27 26.2446C38.272 26.2427 38.2739 26.2388 38.2759 26.2368C38.52 25.7329 38.7641 25.227 39.0102 24.7231C39.102 24.2368 38.7817 24.145 38.6567 24.1274C37.2036 24.1157 35.5376 24.104 34.1021 24.0728C33.8325 24.0669 33.6079 23.8911 33.5259 23.647C33.5259 23.645 33.5259 23.6431 33.5259 23.6392C33.4907 23.5239 33.5083 23.4028 33.5317 23.313C33.5435 23.2837 33.5532 23.2544 33.5669 23.2231C33.7759 22.7075 34.0298 22.2114 34.2603 21.7036C34.4536 21.2778 34.7817 21.0337 35.2485 21.0298C35.5298 21.0278 35.7681 21.022 35.9868 21.0142H38.6216C38.6216 21.0142 38.6294 21.0142 38.6431 21.0142H38.7505C38.9009 21.0044 39.1411 20.9439 39.2485 20.6763L39.8911 19.354H39.8872H39.8852Z" fill="#223C8C"/>
<path fill-rule="evenodd" clip-rule="evenodd" d="M27.3442 23.1318C27.2582 22.0009 26.3559 21.2158 26.3559 21.2158C27.4106 21.0478 28.352 20.6923 29.0942 20.0693C29.1313 20.0341 29.1684 19.997 29.2055 19.9599C29.7133 19.4345 30.0551 18.9111 30.2797 18.415C30.2797 18.415 31.0961 16.7158 31.0355 15.6709C31.0082 14.7685 30.5746 13.7197 28.7016 13.7197H26.4633H24.9965H24.4223C24.3246 13.7197 24.225 13.7197 24.1274 13.7197H21.5434C21.0961 13.7197 20.8657 13.9482 20.7544 14.1182C20.6899 14.2178 20.6665 14.2978 20.6665 14.2998L19.6977 16.2881H19.7016L17.9497 19.8799L17.7583 20.2744L16.7231 22.3955C16.188 23.499 15.5747 24.7705 15.0356 25.8798V25.8818C15.0239 25.9072 15.0102 25.9326 14.9985 25.9579C14.938 26.1064 14.8735 26.4794 15.3813 26.4775H17.5141H17.6176H17.7876C17.893 26.4716 18.0551 26.4462 18.1469 26.3505C18.2348 26.2197 18.2954 26.0673 18.3657 25.9228C18.6743 25.2724 18.9809 24.5888 19.2876 23.9384H19.2895L20.0786 22.3212L21.6938 18.9658C21.6977 18.9541 21.7016 18.9443 21.7036 18.9385L21.7094 18.9267L23.0141 16.2099C23.0668 16.1162 23.1938 15.9697 23.4399 15.9717C23.5825 15.9717 23.725 15.9717 23.8676 15.9717H26.0571C26.0571 15.9717 26.1 15.9717 26.1723 15.9795H26.6059C27.9028 15.9521 27.891 16.6982 27.6996 17.1377C27.6156 17.331 27.1879 18.1338 27.1879 18.1338V18.1299C27.1156 18.249 27.0375 18.3564 26.9496 18.4502C26.9496 18.4502 26.9496 18.4521 26.9477 18.4541C26.8461 18.5654 26.7309 18.6611 26.6059 18.7451C25.8715 19.1787 24.6039 19.1631 24.6039 19.1631H24.2836C24.2309 19.165 24.1723 19.165 24.1039 19.1631C24.0766 19.1631 24.0512 19.1631 24.0239 19.1631L23.2485 19.1533C22.8891 19.1787 22.8012 19.4189 22.8012 19.4189L21.9653 21.1455L21.893 21.292C21.8637 21.3584 21.7915 21.5888 22.1489 21.667C22.1489 21.667 22.1489 21.667 22.1508 21.667C22.3754 21.667 22.5981 21.667 22.8207 21.6767C24.0297 21.7255 24.1704 22.1318 24.2289 23.3584C24.2661 24.1181 24.2114 24.9775 24.2133 25.7372C24.2133 25.8447 24.2192 25.954 24.2368 26.0615C24.2602 26.1708 24.35 26.4189 24.6996 26.4775H27.5199C27.5649 26.4755 27.6762 26.4501 27.6664 26.2783C27.5863 25.6357 27.4555 24.9013 27.4301 24.2587C27.4164 23.874 27.4047 23.4931 27.3461 23.1318" fill="#223C8C"/>
<path fill-rule="evenodd" clip-rule="evenodd" d="M75.8793 25.8021L75.6957 25.3704C75.2582 24.2532 74.4321 21.9369 73.7778 20.0775L78.6645 14.4662C78.6977 14.4271 78.7309 14.39 78.7621 14.351C78.8754 14.2103 78.8266 14.0228 78.7934 13.931C78.7348 13.7767 78.5844 13.7338 78.475 13.7221H75.8364C75.7387 13.7221 75.643 13.7494 75.5512 13.806C75.4594 13.8627 75.3832 13.9388 75.3188 14.0345L72.7192 17.0267C72.3227 15.8802 71.9008 14.6635 71.6918 14.0892C71.561 13.7982 71.4301 13.7318 71.2758 13.7064C71.2485 13.7025 71.1567 13.6967 71.1567 13.6967H68.7485C68.4126 13.6771 68.3383 13.8763 68.3383 13.8763C68.2993 13.976 68.3051 14.0775 68.3247 14.1615C68.3403 14.2279 68.7583 15.4506 68.7583 15.4506L69.1919 16.7396C69.2251 16.8177 69.2563 16.8978 69.2837 16.9838C69.3618 17.224 69.7973 18.5502 70.2407 19.8529L65.1079 25.6966C65.0532 25.7571 65.0024 25.8196 64.9555 25.8782L64.6118 24.2962L64.2544 22.6497C63.1724 23.14 62.1977 23.2298 61.0649 23.2825C61.2895 24.5052 61.5903 26.0071 61.6196 26.14C61.6411 26.2532 61.6841 26.3353 61.7466 26.3821C61.811 26.429 61.9106 26.4544 62.0454 26.4544L67.9614 26.4446C68.061 26.4446 68.1567 26.4173 68.2485 26.3607C68.3403 26.304 68.4184 26.2278 68.4829 26.1302L71.2836 22.8802C71.6489 23.931 71.975 24.8685 72.1528 25.3685C72.2036 25.513 72.2426 25.6224 72.2661 25.6849C72.2778 25.7181 72.2954 25.7532 72.3129 25.7903L72.4379 26.1185C72.5454 26.3763 72.7719 26.4427 72.9223 26.4564H75.5239C75.8598 26.4759 75.934 26.2767 75.934 26.2767C75.9848 26.1478 75.9594 26.015 75.9301 25.9232L75.8774 25.8001L75.8793 25.8021Z" fill="#223C8C"/>
<path fill-rule="evenodd" clip-rule="evenodd" d="M66.5726 17.3857C66.5726 17.3037 66.5726 16.5537 66.5726 16.5537C66.5726 16.5537 66.3851 17.1045 66.3597 17.1728C65.8324 18.5244 64.805 19.3232 63.6488 19.7139C63.0199 19.9267 62.3558 20.0205 61.7132 20.0127C61.2914 20.0068 60.891 19.9951 60.5062 19.9795C59.9418 19.958 59.4125 19.9306 58.9027 19.917C57.7719 19.8857 56.7406 19.917 55.6547 20.1904C55.6156 20.2002 55.5766 20.208 55.5375 20.2197C53.3793 20.7978 52.35 22.3252 52.0649 23.8173C51.9379 24.4052 51.9262 24.9912 52.0082 25.5185C52.5922 23.7744 53.6684 22.3759 56.6625 22.333C60.5355 22.3213 66.4652 23.3232 66.5745 17.3877" fill="#FCAF17"/>
</g>
</g>
<defs>
<clipPath id="clip0_1733_17477">
<rect width="78.4" height="17.9198" fill="white" transform="translate(13.0498 11.04)"/>
</clipPath>
</defs>
</svg>
