<svg width="105" height="40" viewBox="0 0 105 40" fill="none" xmlns="http://www.w3.org/2000/svg">
<rect x="0.5" width="104.5" height="40" rx="6" fill="white"/>
<path d="M82.8852 20.029C82.8852 19.679 82.8657 19.329 82.8463 18.9985C82.8268 18.668 82.7685 18.3181 82.7296 17.9875H78.0052H73.2807L71.842 20.2428L70.4033 22.4981H77.6941C77.2664 23.9757 76.4304 25.2395 75.3027 26.1338C74.1751 27.0282 72.7558 27.5725 71.1032 27.5725C69.0423 27.5725 67.2147 26.7171 65.8732 25.3367C64.5317 23.9563 63.7151 22.0704 63.7151 19.9901C63.7151 17.9486 64.5317 16.0822 65.8927 14.7212C67.2342 13.3603 69.1006 12.5048 71.1615 12.5048C72.0559 12.5048 72.8919 12.6409 73.6696 12.9131C74.4472 13.1659 75.1472 13.5547 75.7693 14.0213L77.0331 11.9993L78.2968 9.97733C77.3247 9.29685 76.2359 8.75248 75.0305 8.40251C73.8445 8.03311 72.5419 7.85813 71.1809 7.85813C69.3534 7.85813 67.7008 8.18865 66.2426 8.79136C64.7845 9.39407 63.4818 10.269 62.3931 11.3577C59.8072 13.9435 59.0684 16.5682 58.5629 18.9596C58.038 21.3705 57.7464 23.5675 55.9771 25.3173C55.2383 26.0561 54.4412 26.6199 53.5468 26.9893C52.6525 27.3587 51.6998 27.5531 50.6694 27.5531C48.5502 27.5531 46.6449 26.6782 45.245 25.2978C43.8646 23.9174 43.0092 22.0315 43.0092 19.9901C43.0092 17.9875 43.8646 16.1211 45.245 14.7407C46.6254 13.3603 48.5308 12.4854 50.6694 12.4659C51.5637 12.4854 52.3803 12.6215 53.1386 12.8548C53.8968 13.0881 54.5967 13.4575 55.2189 13.9241L56.5021 11.9021L57.7853 9.88012C56.8131 9.19964 55.7244 8.6747 54.5384 8.32474C53.3524 7.97478 52.0498 7.7998 50.6888 7.7998C48.5891 7.7998 46.6254 8.3053 44.9145 9.19964C43.2036 10.094 41.7454 11.3577 40.6372 12.8742C40.2095 11.5327 39.3151 10.3856 38.0903 9.58849C36.8654 8.77191 35.31 8.3053 33.5602 8.3053H28.0775H22.6143V20.029V31.7137H34.6684C36.1849 31.7137 37.5459 31.3443 38.6735 30.7222C39.8012 30.1 40.6955 29.2057 41.3177 28.1558C42.4453 29.4001 43.8063 30.4111 45.3617 31.111C46.917 31.811 48.6474 32.1998 50.5139 32.1998C52.6914 32.1998 54.6939 31.6943 56.4243 30.7805C58.1547 29.8667 59.6128 28.5641 60.7405 26.9504C61.8098 28.5447 63.268 29.8473 65.0178 30.7611C66.7481 31.6749 68.7896 32.1998 70.9671 32.1998C74.3306 32.1998 77.3052 30.8388 79.4439 28.6224C81.5825 26.4449 82.8852 23.3925 82.8852 20.029ZM27.6887 17.7931V12.6798H33.463C34.2018 12.6798 34.8434 12.952 35.31 13.3992C35.7766 13.8463 36.0683 14.4879 36.0683 15.2267C36.0683 15.9655 35.7766 16.6071 35.31 17.0543C34.8434 17.5209 34.1824 17.7931 33.463 17.7931H30.5856H27.6887ZM27.6887 27.3781V22.0704H34.6101C35.3878 22.0704 36.0683 22.362 36.5738 22.8286C37.0793 23.2953 37.3904 23.9563 37.3904 24.7145C37.3904 25.4728 37.0793 26.1338 36.5738 26.6199C36.0683 27.1059 35.3878 27.3976 34.6101 27.3976H31.1494H27.6887V27.3781Z" fill="#007254"/>
</svg>
