<svg width="133" height="83" viewBox="0 0 133 83" fill="none" xmlns="http://www.w3.org/2000/svg">
<rect width="133" height="82.9" rx="4" fill="white"/>
<mask id="mask0_1733_22070" style="mask-type:luminance" maskUnits="userSpaceOnUse" x="10" y="29" width="113" height="25">
<path d="M10.3398 29.4614H122.66V53.4384H10.3398V29.4614Z" fill="white"/>
</mask>
<g mask="url(#mask0_1733_22070)">
<path d="M10.3398 29.4546H21.7495C21.7495 33.26 21.7495 37.0621 21.7495 40.8642C17.9452 40.8642 14.1419 40.8642 10.3398 40.8642V29.4546Z" fill="#F25022"/>
<path d="M22.916 29.4546H34.3256C34.3256 33.26 34.3256 37.0621 34.3223 40.8642C30.5202 40.8642 26.7181 40.8642 22.916 40.8642C22.916 37.0621 22.916 33.26 22.916 29.4546Z" fill="#80BA01"/>
<path fill-rule="evenodd" clip-rule="evenodd" d="M111.83 35.7027C111.566 36.5546 111.701 37.4558 111.659 38.3307C111.09 38.3274 110.521 38.3208 109.948 38.3339C109.955 38.995 109.952 39.6528 109.952 40.3106C110.524 40.3238 111.096 40.3106 111.668 40.3205C111.662 43.0932 111.668 45.8658 111.668 48.6417C112.491 48.6417 113.313 48.6417 114.135 48.6417C114.135 45.8658 114.135 43.0932 114.135 40.3172C115.339 40.3139 116.543 40.3172 117.747 40.3172C117.75 42.0867 117.743 43.8529 117.75 45.6224C117.76 46.4447 117.901 47.3261 118.447 47.9741C118.917 48.5496 119.667 48.8128 120.391 48.8687C121.154 48.9213 121.94 48.8292 122.647 48.5233V46.4973C122.104 46.8591 121.358 47.0038 120.769 46.6749C120.421 46.4808 120.282 46.0664 120.236 45.6915C120.164 45.0534 120.21 44.4121 120.197 43.774C120.197 42.6228 120.2 41.4717 120.197 40.3205C121.013 40.3238 121.828 40.2975 122.647 40.3304V38.3274C121.832 38.3307 121.019 38.3208 120.207 38.3339C120.187 37.3045 120.203 36.2717 120.197 35.2456C119.381 35.4889 118.572 35.7521 117.756 35.9823C117.733 36.7651 117.753 37.5479 117.743 38.3274C116.543 38.3274 115.339 38.3274 114.135 38.3274C114.152 37.7123 114.092 37.0907 114.181 36.4789C114.254 35.9955 114.533 35.5153 115.004 35.3278C115.596 35.0844 116.26 35.2456 116.822 35.4955C116.819 34.7884 116.829 34.0845 116.819 33.3807C115.632 33.0518 114.273 33.1176 113.221 33.8017C112.543 34.2358 112.05 34.9298 111.83 35.7027ZM59.1428 35.3442C59.1132 36.0086 59.646 36.6039 60.2874 36.719C60.9057 36.8539 61.6129 36.5941 61.9286 36.0316C62.218 35.535 62.1457 34.8542 61.7576 34.4299C61.4287 34.0418 60.8893 33.8707 60.3926 33.9464C59.7085 34.022 59.1231 34.647 59.1428 35.3442ZM41.4841 48.6417C42.2669 48.6384 43.0496 48.6417 43.8324 48.6384C43.8291 46.494 43.8324 44.3463 43.8324 42.1985C43.839 40.6461 43.8127 39.0937 43.8456 37.5446C43.8894 37.6147 43.93 37.6882 43.9673 37.7649C45.4309 41.3894 46.8846 45.0205 48.3548 48.6417C48.9469 48.6319 49.5389 48.6516 50.1276 48.6319C51.5485 45.0041 52.9989 41.3927 54.4264 37.7715C54.4636 37.6904 54.5064 37.6136 54.5546 37.5413C54.5656 37.6992 54.5711 37.8581 54.5711 38.0182C54.5645 41.5572 54.5744 45.0962 54.5678 48.6352C55.3966 48.6483 56.2254 48.6384 57.0576 48.6384C57.0576 43.8431 57.0543 39.0477 57.0576 34.2523C55.9064 34.2556 54.7553 34.2424 53.6041 34.2588C52.18 37.8077 50.7229 41.3434 49.2856 44.8857C48.9863 44.1818 48.7166 43.4648 48.4305 42.7577C47.3122 39.9193 46.1874 37.0874 45.0724 34.2523C43.8752 34.2523 42.6791 34.2523 41.4841 34.2523C41.4819 39.0477 41.4819 43.8441 41.4841 48.6417Z" fill="#777777"/>
<path fill-rule="evenodd" clip-rule="evenodd" d="M67.1848 38.3184C68.3754 37.9796 69.6581 37.9928 70.8488 38.3283C71.0954 38.3974 71.3323 38.4927 71.5526 38.6243C71.5395 39.4104 71.5526 40.1964 71.546 40.9825C70.7501 40.3741 69.7404 39.9892 68.7273 40.1175C67.9248 40.1899 67.1585 40.6076 66.6783 41.2555C66.0632 42.058 65.9185 43.127 66.0271 44.1104C66.106 44.8833 66.425 45.6529 67.0236 46.1627C67.6453 46.7153 68.5169 46.9093 69.3325 46.8501C70.1351 46.758 70.8948 46.416 71.546 45.9391C71.5526 46.6857 71.5428 47.429 71.5493 48.1756C70.5429 48.7742 69.3325 48.9288 68.1781 48.8729C66.9973 48.8104 65.8199 48.3631 64.9647 47.5342C64.0339 46.6363 63.5307 45.3602 63.4715 44.0808C63.409 42.752 63.682 41.364 64.445 40.2524C65.0864 39.3051 66.0896 38.6342 67.1848 38.3184ZM83.8996 38.1408C85.0836 37.9895 86.3335 38.0586 87.432 38.5585C88.3858 38.9894 89.1587 39.7853 89.5896 40.7358C90.0468 41.7489 90.1553 42.8902 90.0797 43.9887C90.004 45.0642 89.6652 46.1397 88.9943 46.9916C88.3069 47.896 87.2708 48.5111 86.1624 48.738C85.2119 48.9354 84.2219 48.9354 83.2714 48.738C82.1367 48.4946 81.0875 47.8368 80.4231 46.8764C79.6403 45.768 79.42 44.3571 79.5186 43.025C79.5844 41.8969 79.9363 40.7589 80.6566 39.8741C81.446 38.8841 82.6563 38.2987 83.8996 38.1408ZM94.1383 38.1605C95.2763 37.9599 96.4735 38.1079 97.5523 38.519C97.5523 39.2755 97.5523 40.0287 97.5523 40.7852C96.7991 40.2655 95.8749 39.9892 94.9606 40.0188C94.5001 40.0386 93.9936 40.2326 93.7831 40.6734C93.6154 41.1042 93.7305 41.6732 94.1416 41.933C94.8389 42.4034 95.6743 42.6007 96.3979 43.0217C96.9702 43.3407 97.5227 43.7585 97.8121 44.3636C98.3548 45.4951 98.1246 46.9916 97.1708 47.8368C96.2597 48.6887 94.9441 48.9255 93.7371 48.8795C92.8786 48.8235 92.0169 48.6558 91.2275 48.3039C91.2308 47.5079 91.2242 46.712 91.2341 45.9193C91.8952 46.3995 92.6615 46.7449 93.4706 46.8863C94.0364 46.9751 94.6481 46.9817 95.1744 46.7284C95.6776 46.4785 95.7664 45.7648 95.4671 45.3273C95.1908 44.9885 94.7797 44.8044 94.3916 44.6202C93.6647 44.2946 92.9016 44.0216 92.2636 43.5315C91.813 43.1796 91.4742 42.6862 91.3394 42.1304C91.142 41.3114 91.2045 40.3872 91.6814 39.6702C92.2274 38.8348 93.1713 38.3349 94.1383 38.1605ZM103.568 38.1375C104.798 37.9862 106.107 38.0684 107.229 38.6342C108.209 39.1242 108.968 40.009 109.35 41.0351C109.646 41.8179 109.751 42.6632 109.732 43.4953C109.735 44.7419 109.399 46.0213 108.617 47.008C107.886 47.9651 106.765 48.5867 105.584 48.7841C104.426 48.9683 103.206 48.9222 102.108 48.4881C100.996 48.0506 100.068 47.156 99.6014 46.0575C99.1113 44.9359 99.062 43.6729 99.2133 42.4757C99.3744 41.2752 99.9171 40.1044 100.841 39.3084C101.598 38.6407 102.575 38.2658 103.568 38.1375Z" fill="#777777"/>
<path fill-rule="evenodd" clip-rule="evenodd" d="M77.072 38.4871C77.7528 38.0792 78.6178 38.043 79.3611 38.293C79.3578 39.1185 79.3611 39.9408 79.3578 40.7631C78.8711 40.4473 78.2659 40.3125 77.6903 40.3717C76.9897 40.4506 76.4339 40.99 76.1478 41.605C75.8353 42.2596 75.7761 42.9963 75.7958 43.71C75.7958 45.3545 75.7958 46.999 75.7958 48.6435C74.9845 48.6435 74.1733 48.6435 73.362 48.6435C73.362 45.2065 73.3653 41.7695 73.362 38.3358C74.1744 38.3259 74.9867 38.3292 75.7958 38.3325C75.7925 38.9212 75.7958 39.5132 75.7958 40.102C76.059 39.4606 76.4504 38.839 77.072 38.4871ZM59.3672 38.3325C60.1862 38.3292 61.0051 38.3226 61.8208 38.3358C61.8109 41.7728 61.8208 45.2065 61.8175 48.6435C60.9996 48.6435 60.1829 48.6435 59.3672 48.6435C59.3672 45.2065 59.3672 41.7695 59.3672 38.3325Z" fill="#777777"/>
<path fill-rule="evenodd" clip-rule="evenodd" d="M84.6347 40.1013C85.378 40.052 86.1674 40.2625 86.7002 40.7986C87.2692 41.361 87.4896 42.1734 87.5521 42.9496C87.5948 43.7981 87.5587 44.6829 87.2034 45.469C86.9666 46.0018 86.5358 46.4491 85.9898 46.6596C85.355 46.9063 84.638 46.9194 83.9802 46.7484C83.3092 46.5741 82.7435 46.0906 82.4344 45.4723C82.0364 44.6796 81.9772 43.762 82.0594 42.8937C82.1351 42.101 82.4081 41.2853 83.0132 40.7394C83.4507 40.3315 84.046 40.1342 84.6347 40.1013ZM104.231 40.1013C104.928 40.052 105.671 40.2131 106.207 40.6867C106.704 41.0946 106.977 41.7096 107.102 42.328C107.243 43.0515 107.24 43.8014 107.122 44.5316C107.026 45.0743 106.839 45.6137 106.484 46.0445C106.125 46.4754 105.592 46.7385 105.043 46.8208C104.451 46.9096 103.829 46.8668 103.277 46.6267C102.682 46.3767 102.218 45.8604 101.974 45.265C101.682 44.5579 101.626 43.7751 101.682 43.0186C101.741 42.2885 101.948 41.5353 102.432 40.9663C102.872 40.4335 103.55 40.1408 104.231 40.1013ZM120.196 40.3217C121.011 40.3249 121.827 40.2986 122.646 40.3315V46.4984C122.103 46.8602 121.357 47.0049 120.768 46.676C120.419 46.482 120.281 46.0676 120.235 45.6926C120.163 45.0546 120.209 44.4132 120.196 43.7751C120.196 42.624 120.199 41.4728 120.196 40.3217Z" fill="#FEFEFE"/>
<path d="M10.3398 42.0288C14.1419 42.0288 17.9473 42.0288 21.7495 42.0288C21.7495 45.8342 21.7495 49.6363 21.7495 53.4384H10.3398V42.0288Z" fill="#02A4EF"/>
<path d="M22.916 42.0288C26.7181 42.0288 30.5202 42.0288 34.3256 42.0288C34.3256 45.8331 34.3256 49.6363 34.3256 53.4384H22.916C22.916 49.6363 22.916 45.8309 22.916 42.0288Z" fill="#FFB902"/>
</g>
</svg>
