<svg width="133" height="84" viewBox="0 0 133 84" fill="none" xmlns="http://www.w3.org/2000/svg">
<rect y="0.899902" width="133" height="82.9" rx="4" fill="white"/>
<g clip-path="url(#clip0_1733_22100)">
<path d="M58.7908 44.5126H66.2507L62.3062 38.1664L55.0666 49.6406H51.7717L60.5775 35.8577C60.9603 35.3008 61.5984 34.9644 62.3062 34.9644C62.9906 34.9644 63.6287 35.2892 64 35.8345L72.8406 49.6406H69.5457L67.991 47.0766H60.4382L58.7908 44.5126ZM93.0161 47.0766V35.1036H90.2201V48.2484C90.2201 48.6081 90.3593 48.9561 90.6262 49.223C90.893 49.4898 91.2526 49.6406 91.6471 49.6406H104.398L106.045 47.0766H93.0161ZM46.7597 44.9303C49.4746 44.9303 51.6789 42.7376 51.6789 40.0227C51.6789 37.3079 49.4746 35.1036 46.7597 35.1036H34.5279V49.6406H37.3228V37.6676H46.5741C47.8735 37.6676 48.9177 38.7233 48.9177 40.0227C48.9177 41.3221 47.8735 42.3779 46.5741 42.3779L38.6918 42.3663L47.0381 49.6406H51.0988L45.4836 44.9303H46.7597ZM17.3225 49.6406C13.3094 49.6406 10.0527 46.3921 10.0527 42.3779C10.0527 38.3637 13.3094 35.1036 17.3225 35.1036H25.772C29.7862 35.1036 33.0406 38.3637 33.0406 42.3779C33.0406 46.3921 29.7862 49.6406 25.772 49.6406H17.3225ZM25.5841 47.0766C28.1841 47.0766 30.2898 44.9767 30.2898 42.3779C30.2898 39.7791 28.1841 37.6676 25.5841 37.6676H17.5092C14.9104 37.6676 12.8035 39.7791 12.8035 42.3779C12.8035 44.9767 14.9104 47.0766 17.5092 47.0766H25.5841ZM78.6763 49.6406C74.662 49.6406 71.402 46.3921 71.402 42.3779C71.402 38.3637 74.662 35.1036 78.6763 35.1036H88.7118L87.076 37.6676H78.8619C76.2631 37.6676 74.1516 39.7791 74.1516 42.3779C74.1516 44.9767 76.2631 47.0766 78.8619 47.0766H88.9438L87.2964 49.6406H78.6763ZM112.867 47.0766C110.72 47.0766 108.899 45.638 108.342 43.6541H120.292L121.939 41.0901H108.342C108.899 39.1178 110.72 37.6676 112.867 37.6676H121.069L122.728 35.1036H112.681C108.667 35.1036 105.407 38.3637 105.407 42.3779C105.407 46.3921 108.667 49.6406 112.681 49.6406H121.301L122.949 47.0766H112.867Z" fill="#EA1B22"/>
</g>
<defs>
<clipPath id="clip0_1733_22100">
<rect width="112.896" height="14.7735" fill="white" transform="translate(10.0527 34.9634)"/>
</clipPath>
</defs>
</svg>
