<svg width="24" height="24" viewBox="0 0 24 24" fill="none" xmlns="http://www.w3.org/2000/svg">
<path fill-rule="evenodd" clip-rule="evenodd" d="M20.5008 19.6592H3.50078C3.33171 19.6592 3.16956 19.7263 3.05 19.8459C2.93045 19.9655 2.86328 20.1276 2.86328 20.2967C2.86328 20.4658 2.93045 20.6279 3.05 20.7475C3.16956 20.867 3.33171 20.9342 3.50078 20.9342H20.5008C20.6699 20.9342 20.832 20.867 20.9516 20.7475C21.0711 20.6279 21.1383 20.4658 21.1383 20.2967C21.1383 20.1276 21.0711 19.9655 20.9516 19.8459C20.832 19.7263 20.6699 19.6592 20.5008 19.6592Z" fill="#EF5523"/>
<path fill-rule="evenodd" clip-rule="evenodd" d="M14.3375 20.2964V4.55184C14.3372 4.30888 14.2774 4.06969 14.1633 3.85516C14.0493 3.64063 13.8845 3.45728 13.6833 3.32112C13.482 3.18496 13.2505 3.10013 13.009 3.07404C12.7674 3.04795 12.5232 3.08139 12.2975 3.17144L5.4975 5.89144C5.22146 6.00187 4.98485 6.19248 4.81819 6.43868C4.65153 6.68489 4.56247 6.97538 4.5625 7.27269V20.2964C4.5625 20.6491 4.8481 20.9339 5.2 20.9339H13.7C13.8691 20.9339 14.0312 20.8667 14.1508 20.7472C14.2703 20.6276 14.3375 20.4655 14.3375 20.2964ZM7.75 18.3839H11.15C11.3191 18.3839 11.4812 18.3167 11.6008 18.1972C11.7203 18.0776 11.7875 17.9155 11.7875 17.7464C11.7875 17.5773 11.7203 17.4152 11.6008 17.2956C11.4812 17.1761 11.3191 17.1089 11.15 17.1089H7.75C7.58092 17.1089 7.41877 17.1761 7.29922 17.2956C7.17967 17.4152 7.1125 17.5773 7.1125 17.7464C7.1125 17.9155 7.17967 18.0776 7.29922 18.1972C7.41877 18.3167 7.58092 18.3839 7.75 18.3839ZM7.75 15.4089H11.15C11.3191 15.4089 11.4812 15.3417 11.6008 15.2222C11.7203 15.1026 11.7875 14.9405 11.7875 14.7714C11.7875 14.6023 11.7203 14.4402 11.6008 14.3206C11.4812 14.2011 11.3191 14.1339 11.15 14.1339H7.75C7.58092 14.1339 7.41877 14.2011 7.29922 14.3206C7.17967 14.4402 7.1125 14.6023 7.1125 14.7714C7.1125 14.9405 7.17967 15.1026 7.29922 15.2222C7.41877 15.3417 7.58092 15.4089 7.75 15.4089ZM7.75 12.4339H11.15C11.3191 12.4339 11.4812 12.3667 11.6008 12.2472C11.7203 12.1276 11.7875 11.9655 11.7875 11.7964C11.7875 11.6273 11.7203 11.4652 11.6008 11.3456C11.4812 11.2261 11.3191 11.1589 11.15 11.1589H7.75C7.58092 11.1589 7.41877 11.2261 7.29922 11.3456C7.17967 11.4652 7.1125 11.6273 7.1125 11.7964C7.1125 11.9655 7.17967 12.1276 7.29922 12.2472C7.41877 12.3667 7.58092 12.4339 7.75 12.4339ZM7.75 9.45889H11.15C11.3191 9.45889 11.4812 9.39172 11.6008 9.27217C11.7203 9.15262 11.7875 8.99046 11.7875 8.82139C11.7875 8.65231 11.7203 8.49016 11.6008 8.37061C11.4812 8.25105 11.3191 8.18389 11.15 8.18389H7.75C7.58092 8.18389 7.41877 8.25105 7.29922 8.37061C7.17967 8.49016 7.1125 8.65231 7.1125 8.82139C7.1125 8.99046 7.17967 9.15262 7.29922 9.27217C7.41877 9.39172 7.58092 9.45889 7.75 9.45889ZM15.1875 7.75889V20.2964C15.1875 20.525 15.1365 20.7409 15.0447 20.9339H18.8C18.9691 20.9339 19.1312 20.8667 19.2508 20.7472C19.3703 20.6276 19.4375 20.4655 19.4375 20.2964V9.24639C19.4375 8.85188 19.2808 8.47353 19.0018 8.19457C18.7229 7.91561 18.3445 7.75889 17.95 7.75889H15.1875Z" fill="#EF5523"/>
</svg>
