<svg width="24" height="24" viewBox="0 0 24 24" fill="none" xmlns="http://www.w3.org/2000/svg">
<path d="M18.1598 15.6065C17.0482 14.6558 15.9201 14.0799 14.8222 15.0292L14.1666 15.6029C13.687 16.0194 12.7952 17.9653 9.34704 13.9987C5.89964 10.0372 7.95113 9.42041 8.43151 9.00752L9.09069 8.43308C10.1829 7.48165 9.77069 6.28393 8.98298 5.05102L8.50763 4.30424C7.71633 3.07421 6.85466 2.26639 5.75962 3.21638L5.16794 3.73338C4.68397 4.08595 3.33114 5.23197 3.00299 7.40913C2.60806 10.0214 3.85389 13.0129 6.70817 16.2951C9.55887 19.5788 12.35 21.2282 14.9938 21.1994C17.1911 21.1757 18.5181 19.9967 18.9331 19.568L19.527 19.0503C20.6191 18.101 19.9406 17.1345 18.8283 16.1816L18.1598 15.6065Z" fill="#EF5523"/>
</svg>
