<svg width="228" height="220" viewBox="0 0 228 220" fill="none" xmlns="http://www.w3.org/2000/svg">
<path d="M194.133 116.405H193.224V85.6235H194.133V116.405Z" fill="#040D43"/>
<path d="M193.678 116.405L191.056 108.95H196.21L193.678 116.405Z" fill="#040D43"/>
<path d="M108.982 97.4444H56.0293V65.8979H108.982V97.4444Z" fill="white"/>
<path fill-rule="evenodd" clip-rule="evenodd" d="M109.436 97.8943H55.5742V65.4478H109.436V97.8943ZM56.4838 96.9942H108.527V66.3478H56.4838V96.9942Z" fill="#040D43"/>
<path d="M164.541 97.4444H111.589V65.8979H164.541V97.4444Z" fill="white"/>
<path fill-rule="evenodd" clip-rule="evenodd" d="M164.996 97.8943H111.134V65.4478H164.996V97.8943ZM112.043 96.9942H164.086V66.3478H112.043V96.9942Z" fill="#040D43"/>
<path d="M220.117 97.4444H167.164V65.8979H220.117V97.4444Z" fill="white"/>
<path fill-rule="evenodd" clip-rule="evenodd" d="M220.572 97.8943H166.71V65.4478H220.572V97.8943ZM167.62 96.9942H219.662V66.3478H167.62V96.9942Z" fill="#040D43"/>
<path d="M202.274 75.1686H170.605V69.9033H202.274V75.1686Z" fill="#C4C8E0"/>
<path d="M195.331 89.449H170.605V84.1987H195.331V89.449Z" fill="#C4C8E0"/>
<path d="M197.089 82.3087H170.605V77.0435H197.089V82.3087Z" fill="#C4C8E0"/>
<path d="M148.29 75.1686H116.622V69.9033H148.29V75.1686Z" fill="#C4C8E0"/>
<path d="M227.544 154.957H134.889V116.121H227.544V154.957Z" fill="white"/>
<path fill-rule="evenodd" clip-rule="evenodd" d="M228 155.407H134.435V115.67H228V155.407ZM135.344 154.507H227.09V116.57H135.344V154.507Z" fill="#040D43"/>
<path d="M179.049 148.552H140.665V120.831H179.049V148.552Z" fill="white"/>
<path fill-rule="evenodd" clip-rule="evenodd" d="M179.505 149.002H140.211V120.381H179.505V149.002ZM141.121 148.102H178.595V121.281H141.121V148.102Z" fill="#040D43"/>
<path d="M221.77 148.552H183.386V120.831H221.77V148.552Z" fill="white"/>
<path fill-rule="evenodd" clip-rule="evenodd" d="M222.224 149.002H182.931V120.381H222.224V149.002ZM183.84 148.102H221.315V121.281H183.84V148.102Z" fill="#040D43"/>
<path d="M204.365 40.2015H71.3848V0.449707H204.365V40.2015Z" fill="white"/>
<path fill-rule="evenodd" clip-rule="evenodd" d="M204.82 40.6519H70.9307V0H204.82V40.6519ZM71.8402 39.7518H203.911V0.915039H71.8402V39.7518Z" fill="#040D43"/>
<path d="M114.362 34.5016H75.0684V6.13525H114.362V34.5016Z" fill="white"/>
<path fill-rule="evenodd" clip-rule="evenodd" d="M114.818 34.9519H74.6143V5.68555H114.818V34.9519ZM75.5238 34.0519H113.908V6.58559H75.5238V34.0519Z" fill="#040D43"/>
<path d="M156.735 34.5016H117.456V6.13525H156.735V34.5016Z" fill="white"/>
<path fill-rule="evenodd" clip-rule="evenodd" d="M157.189 34.9519H117.001V5.68555H157.189V34.9519ZM117.911 34.0519H156.28V6.58559H117.911V34.0519Z" fill="#040D43"/>
<path d="M199.12 34.5016H159.826V6.13525H199.12V34.5016Z" fill="white"/>
<path fill-rule="evenodd" clip-rule="evenodd" d="M199.575 34.9519H159.372V5.68555H199.575V34.9519ZM160.282 34.0519H198.666V6.58559H160.282V34.0519Z" fill="#040D43"/>
<path d="M90.3045 13.7107H77.8281V10.2905H90.3045V13.7107Z" fill="#C4C8E0"/>
<path d="M109.542 13.7107H90.9561V10.2905H109.542V13.7107Z" fill="#C4C8E0"/>
<path d="M97.7933 27.6915H77.8281V24.2563H97.7933V27.6915Z" fill="#C4C8E0"/>
<path d="M93.9579 23.0261H77.8281V19.606H93.9579V23.0261Z" fill="#C4C8E0"/>
<path d="M182.505 17.7608H162.54V14.3257H182.505V17.7608Z" fill="#C4C8E0"/>
<path d="M178.67 13.0954H162.54V9.67529H178.67V13.0954Z" fill="#C4C8E0"/>
<path d="M95.1101 18.3756H77.8281V14.9404H95.1101V18.3756Z" fill="#C4C8E0"/>
<path d="M108.238 18.3756H95.7012V14.9404H108.238V18.3756Z" fill="#C4C8E0"/>
<path d="M140.954 13.7107H120.291V10.2905H140.954V13.7107Z" fill="#C4C8E0"/>
<path d="M152.005 13.7107H141.394V10.2905H152.005V13.7107Z" fill="#C4C8E0"/>
<path d="M136.421 23.0261H120.291V19.606H136.421V23.0261Z" fill="#C4C8E0"/>
<path d="M137.573 18.3756H120.291V14.9404H137.573V18.3756Z" fill="#C4C8E0"/>
<path d="M93.0346 65.493H92.125V34.7266H93.0346V65.493Z" fill="#040D43"/>
<path d="M92.5796 65.4934L89.957 58.0381H95.1113L92.5796 65.4934Z" fill="#040D43"/>
<path d="M136.921 65.493H136.012V34.7266H136.921V65.493Z" fill="#040D43"/>
<path d="M136.465 65.4934L133.843 58.0381H138.997L136.465 65.4934Z" fill="#040D43"/>
<path d="M179.974 65.493H179.064V34.7266H179.974V65.493Z" fill="#040D43"/>
<path d="M179.519 65.4934L176.896 58.0381H182.051L179.519 65.4934Z" fill="#040D43"/>
<path d="M208.565 219.475H18.5244V218.575H208.565V219.475Z" fill="#040D43"/>
<path d="M111.969 120.74C106.542 116.54 114.334 104.914 117.881 98.4788C120.443 93.8286 122.186 91.6085 123.475 92.1786C124.809 92.7786 121.398 98.6139 121.398 98.6139C121.398 98.6139 125.628 92.0886 126.992 92.8236C128.478 93.6186 123.839 99.8739 123.839 99.8739C123.839 99.8739 128.053 93.2886 129.22 94.2487C130.054 94.9387 126.401 101.779 126.401 101.779C126.401 101.779 130.024 97.3088 130.797 97.8938C131.631 98.5089 127.689 105.184 125.461 108.934C123.839 111.634 113.864 122.21 111.969 120.74Z" fill="white"/>
<path fill-rule="evenodd" clip-rule="evenodd" d="M112.424 121.341C112.131 121.341 111.884 121.261 111.682 121.101C106.618 117.17 112.045 107.735 116.017 100.85C116.548 99.9195 117.048 99.0645 117.473 98.2695C120.004 93.6792 121.929 90.9941 123.658 91.7741C123.824 91.8491 124.052 92.0142 124.173 92.3592C124.325 92.8542 124.173 93.6342 123.885 94.4893C125.431 92.6742 126.477 92.0292 127.205 92.4342C127.463 92.5692 127.645 92.7942 127.705 93.0942C127.736 93.2592 127.827 93.6042 127.539 94.4443C127.993 94.0393 128.418 93.7842 128.782 93.7242C129.13 93.6642 129.373 93.7992 129.524 93.9042C129.903 94.2193 130.161 94.8643 128.539 98.4645C128.468 98.6345 128.393 98.8045 128.312 98.9745C129.737 97.5194 130.525 97.1144 131.071 97.5344C131.859 98.1194 131.268 100.085 125.841 109.16C124.461 111.47 115.987 120.695 112.773 121.296C112.652 121.326 112.536 121.341 112.424 121.341ZM123.051 92.5392C121.672 92.5392 119.14 97.1294 118.276 98.7045C117.836 99.4995 117.336 100.37 116.806 101.285C113.213 107.525 107.801 116.945 112.242 120.395C112.303 120.44 112.44 120.44 112.606 120.41C115.335 119.9 123.612 111.14 125.067 108.71C126.25 106.73 127.599 104.435 128.691 102.395C130.1 99.7245 130.404 98.7195 130.449 98.3445C129.812 98.6595 128.221 100.25 126.75 102.065C126.614 102.245 126.356 102.29 126.159 102.17C125.962 102.035 125.886 101.78 126.007 101.57C127.917 97.9994 128.964 95.2393 128.903 94.6093C128.494 94.6543 127.296 95.7943 125.735 97.9094C124.961 99.1395 124.249 100.1 124.219 100.145C124.067 100.34 123.794 100.385 123.597 100.25C123.385 100.115 123.324 99.8445 123.461 99.6345C123.688 99.2895 124.264 98.4044 124.977 97.4294C126.053 95.7193 126.962 93.9492 126.826 93.3042C126.811 93.2292 126.781 93.2292 126.781 93.2142C126.765 93.2142 126.159 93.0642 124.037 95.7193C122.839 97.2194 121.793 98.8395 121.778 98.8545C121.641 99.0645 121.369 99.1245 121.156 99.0045C120.944 98.8695 120.883 98.5995 121.005 98.3894C121.005 98.3744 121.793 97.0394 122.445 95.6143C123.627 93.0342 123.279 92.5992 123.279 92.5842C123.208 92.5542 123.132 92.5392 123.051 92.5392Z" fill="#040D43"/>
<path d="M67.4756 115.085C67.4756 115.085 92.6709 132.771 101.706 137.196C110.817 141.666 125.931 109.475 125.931 109.475C126.613 105.89 120.383 100.894 115.092 101.629C110.878 109.025 104.541 123.8 100.008 121.07C91.352 115.85 69.2341 99.4243 69.2341 99.4243" fill="white"/>
<path d="M103.54 138.066C102.823 138.066 102.14 137.911 101.494 137.601C92.5343 133.206 67.4603 115.64 67.2178 115.46L67.7332 114.725C67.9909 114.905 93.0043 132.426 101.903 136.791C102.888 137.271 103.949 137.301 105.177 136.866C113.712 133.911 124.885 110.6 125.491 109.325C125.688 108.185 125.052 106.775 123.763 105.425C121.944 103.535 118.579 101.705 115.38 102.05C114.592 103.415 113.758 105.035 112.863 106.73C109.407 113.315 105.496 120.755 101.964 121.73C101.175 121.956 100.432 121.851 99.7654 121.445C91.2003 116.27 69.1885 99.9495 68.9611 99.7845L69.5069 99.0645C69.7343 99.2295 91.7157 115.535 100.235 120.68C100.69 120.95 101.175 121.025 101.706 120.875C104.874 120.005 108.846 112.415 112.045 106.325C112.985 104.525 113.879 102.83 114.698 101.405L114.804 101.21L115.031 101.18C118.624 100.685 122.338 102.65 124.415 104.81C125.931 106.385 126.643 108.11 126.371 109.55V109.61L126.34 109.655C126.31 109.715 123.384 115.925 119.397 122.436C114 131.241 109.316 136.386 105.481 137.721C104.814 137.951 104.167 138.066 103.54 138.066Z" fill="#040D43"/>
<path d="M170.999 111.98L171.605 110.21L188.069 115.655L187.462 117.425L170.999 111.98Z" fill="#040D43"/>
<path d="M10.126 53.3874L12.976 44.957L155.097 91.9392L152.247 100.37L10.126 53.3874Z" fill="white"/>
<path fill-rule="evenodd" clip-rule="evenodd" d="M152.535 100.94L152.111 100.805L9.5498 53.6726L12.6878 44.3872L13.1275 44.5222L155.673 91.6544L152.535 100.94ZM10.7019 53.1026L151.959 99.8148L154.521 92.2244L13.2639 45.5273L10.7019 53.1026Z" fill="#040D43"/>
<path d="M5.38086 67.4279L8.23086 58.9976L150.352 105.995L147.502 114.425L5.38086 67.4279Z" fill="#C4C8E0"/>
<path d="M7.6543 60.6926L10.5043 52.2622L152.626 99.2444L149.776 107.69L7.6543 60.6926Z" fill="white"/>
<path fill-rule="evenodd" clip-rule="evenodd" d="M150.064 108.245L149.639 108.11L7.07812 60.9783L10.2162 51.6929L10.6558 51.8279L153.202 98.9751L150.064 108.245ZM8.23025 60.3933L149.487 107.105L152.049 99.5151L10.7922 52.8179L8.23025 60.3933Z" fill="#040D43"/>
<path d="M155.097 91.9391L178.715 112.46L178.488 114.26L147.502 114.425C147.502 114.425 144.621 112.385 143.575 110C142.544 107.63 149.775 107.69 149.775 107.69C149.775 107.69 142.347 105.23 144.318 101.015C145.925 97.6094 152.626 99.2445 152.626 99.2445C152.626 99.2445 146.365 96.1393 147.805 93.6942C149.245 91.2641 155.097 91.9391 155.097 91.9391Z" fill="#040D43"/>
<path d="M178.714 112.46L155.096 91.9391C155.096 91.9391 149.244 91.2641 147.804 93.6942C146.364 96.1393 152.625 99.2445 152.625 99.2445C152.625 99.2445 152.504 99.2295 152.276 99.2145L178.699 112.475L178.714 112.46Z" fill="white"/>
<path fill-rule="evenodd" clip-rule="evenodd" d="M179.079 113.165L149.851 98.494L150.548 98.569C150.407 98.479 150.265 98.384 150.124 98.284C148.502 97.159 147.531 96.0939 147.228 95.1039C147.046 94.5188 147.107 93.9638 147.41 93.4688C148.972 90.8137 154.899 91.4737 155.142 91.5037L155.293 91.5187L155.399 91.6087L179.185 112.28L179.079 113.165ZM154.96 100.039L175.759 110.48L154.899 92.3738C153.262 92.1937 149.214 92.1787 148.199 93.9188C148.032 94.2038 148.001 94.5039 148.108 94.8339C148.578 96.4239 151.685 98.269 152.837 98.839L155.369 100.099L154.96 100.039Z" fill="#040D43"/>
<path d="M149.639 108.11C149.412 108.035 143.985 106.19 143.985 101.75C143.985 100.805 144.334 100.04 145.031 99.4848C145.925 98.7648 147.275 98.5098 148.578 98.4648L10.3682 52.6827L10.6562 51.8276L152.429 98.7798L152.186 99.6498C152.141 99.6348 147.457 98.6898 145.607 100.19C145.122 100.565 144.895 101.075 144.895 101.75C144.895 105.545 149.867 107.24 149.928 107.255L149.639 108.11Z" fill="#040D43"/>
<path d="M178.973 113.901L147.502 107.69L147.669 106.805L179.14 113.03L178.973 113.901Z" fill="white"/>
<path d="M72.4321 88.8943C71.659 83.5091 68.6877 74.2086 53.8919 77.4338C39.748 80.5089 41.4762 98.6298 29.9549 109.46C18.4185 120.291 -4.44224 119.046 0.757506 148.507C6.89715 183.264 65.6861 155.137 65.6861 155.137C65.6861 155.137 73.9178 99.4248 72.4321 88.8943Z" fill="#040D43"/>
<path d="M24.1487 166.313C20.7226 165.503 16.6447 162.817 13.2338 159.097C9.41357 154.957 7.01836 150.172 6.45745 145.627C5.80559 140.211 7.44282 132.501 19.0702 126.606C36.3219 117.845 39.0506 109.805 42.8102 98.6745C43.5833 96.3644 44.402 93.9943 45.3873 91.4141C49.4501 80.8537 56.6661 78.0785 62.0477 79.0086C64.9281 79.5036 67.0504 81.0787 67.0807 82.7588L66.1712 82.7738C66.156 81.7087 64.5491 80.3436 61.8961 79.8936C56.8632 79.0236 50.102 81.6937 46.2363 91.7442C45.2509 94.2943 44.4474 96.6644 43.6743 98.9595C39.8389 110.285 37.0647 118.475 19.4796 127.401C10.6567 131.886 6.45745 138.156 7.36703 145.522C7.89761 149.872 10.217 154.492 13.9008 158.497C17.145 162.022 21.1471 164.678 24.361 165.443L24.1487 166.313Z" fill="white"/>
<path d="M33.6081 165.457C29.7121 164.077 20.7376 155.932 20.5102 147.682C20.4496 145.146 21.2075 142.836 22.7841 140.811C24.5578 138.531 27.3472 136.581 31.1068 135.036C38.0499 132.171 43.4467 126.711 47.176 118.805C50.8294 111.05 51.9816 102.86 52.2999 97.3693C52.7395 89.7339 54.7406 84.8137 58.2425 82.7286C61.8201 80.6135 65.5494 82.2786 65.701 82.3536L65.322 83.1636C65.2614 83.1336 61.8353 81.6336 58.7124 83.5087C55.4683 85.4287 53.6188 90.109 53.2095 97.4143C52.8911 102.995 51.7238 111.29 47.9946 119.195C44.1744 127.296 38.6108 132.906 31.4554 135.861C24.6639 138.666 21.2985 142.641 21.4198 147.652C21.5107 151.027 23.2693 154.897 26.3618 158.542C29.1815 161.872 32.2589 164.017 33.9113 164.602L33.6081 165.457Z" fill="white"/>
<path d="M45.054 210.909C45.054 210.909 22.2388 220.27 19.7829 219.505C17.3422 218.74 16.842 217.915 17.5696 217.135L43.9625 188.633C44.387 188.168 45.1449 188.153 45.5694 188.603L58.7583 202.449C59.2282 202.944 59.0766 203.724 58.4551 204.039L45.2511 210.834C45.1904 210.864 45.1247 210.889 45.054 210.909Z" fill="#040D43"/>
<path fill-rule="evenodd" clip-rule="evenodd" d="M20.1467 220C19.9446 220 19.7778 219.98 19.6464 219.94C17.9334 219.4 17.039 218.815 16.8419 218.08C16.7661 217.78 16.7661 217.33 17.2361 216.82L43.6289 188.318C43.917 188.003 44.3263 187.823 44.7659 187.823C45.2055 187.823 45.6148 187.988 45.9029 188.288L59.0917 202.134C59.4101 202.479 59.5465 202.914 59.4707 203.364C59.3949 203.829 59.1069 204.219 58.6673 204.444L45.4632 211.239C45.3824 211.279 45.2965 211.314 45.2055 211.344C44.8417 211.494 39.2781 213.759 33.5023 215.92C26.1044 218.68 21.7991 220 20.1467 220ZM44.7811 188.723C44.5991 188.723 44.4172 188.798 44.296 188.933L17.9031 217.435C17.6757 217.675 17.706 217.795 17.7212 217.84C17.7666 217.99 18.0395 218.485 19.9193 219.07C20.0002 219.1 20.1012 219.115 20.2225 219.115C22.8754 219.115 36.5039 213.924 44.872 210.504L44.9175 210.489C44.9579 210.469 44.9983 210.449 45.0388 210.429L58.258 203.634C58.4247 203.544 58.546 203.394 58.5763 203.214C58.6066 203.049 58.546 202.884 58.4399 202.764L45.2359 188.903C45.1297 188.783 44.963 188.723 44.7811 188.723Z" fill="#040D43"/>
<path d="M17.888 218.65L14.7803 216.34L42.113 185.634L45.5694 188.604L17.888 218.65Z" fill="white"/>
<path fill-rule="evenodd" clip-rule="evenodd" d="M17.9487 219.25L14.1133 216.414L42.0676 185.003L46.2213 188.558L17.9487 219.25ZM15.4625 216.279L17.8274 218.049L44.9176 188.648L42.1586 186.278L15.4625 216.279Z" fill="#040D43"/>
<path d="M25.7857 218.83C25.4674 218.83 25.1794 218.605 25.1187 218.275L24.4214 214.42C24.3607 214.06 24.6033 213.715 24.9823 213.64C25.3461 213.58 25.7099 213.82 25.7706 214.195L26.4528 218.05C26.5286 218.41 26.2708 218.755 25.907 218.83C25.8666 218.83 25.8262 218.83 25.7857 218.83Z" fill="white"/>
<path d="M28.4994 218.125C28.181 218.125 27.893 217.9 27.8324 217.57L26.9683 212.755C26.9076 212.395 27.1502 212.035 27.5292 211.975C27.893 211.915 28.2568 212.155 28.3175 212.53L29.1816 217.33C29.2422 217.705 28.9996 218.05 28.6207 218.11C28.5802 218.12 28.5398 218.125 28.4994 218.125Z" fill="white"/>
<path d="M31.4708 216.955C31.1373 216.955 30.8493 216.715 30.7887 216.4L29.773 210.67C29.7123 210.295 29.9549 209.949 30.3187 209.874C30.6977 209.814 31.0464 210.069 31.1222 210.43L32.1379 216.16C32.1985 216.52 31.9559 216.88 31.5921 216.94C31.5517 216.95 31.5113 216.955 31.4708 216.955Z" fill="white"/>
<path d="M45.0535 211.584C44.7655 211.584 44.4926 211.404 44.4017 211.104C44.2956 210.744 44.4926 210.369 44.8565 210.264C44.8868 210.254 44.9121 210.244 44.9323 210.234C45.2658 210.069 45.6751 210.189 45.857 210.519C46.0238 210.849 45.9025 211.269 45.5538 211.434C45.4628 211.484 45.3618 211.524 45.2506 211.554C45.1799 211.574 45.1142 211.584 45.0535 211.584Z" fill="white"/>
<path d="M45.8112 187.808C45.8112 187.808 72.9014 189.638 82.0123 190.403C63.6995 186.263 54.7857 170.497 54.7857 170.497C62.9719 162.547 78.3437 150.396 89.2283 145.281C89.2283 145.281 112.104 178.913 121.079 194.184C128.249 206.394 121.427 219.55 103.266 219.55C76.8884 219.55 38.8832 218.65 38.8832 218.65C33.1984 216.43 41.1117 194.679 45.8112 187.808Z" fill="white"/>
<path fill-rule="evenodd" clip-rule="evenodd" d="M103.266 220C77.1916 220 39.2623 219.1 38.8833 219.1H38.7923L38.7166 219.07C37.8221 218.71 37.1854 217.945 36.8216 216.79C34.866 210.549 41.3088 193.584 45.4323 187.553L45.5839 187.328L45.8416 187.358C46.069 187.373 66.3374 188.738 77.6009 189.608C72.7954 187.913 66.8983 184.838 61.2134 179.213C56.6958 174.758 54.4825 170.873 54.3916 170.723L54.2097 170.423L54.4674 170.168C58.8333 165.937 64.7608 160.942 70.7185 156.472C75.5847 152.827 82.7097 147.847 89.0313 144.876L89.38 144.711L89.6074 145.026C89.8347 145.371 112.604 178.853 121.473 193.959C124.96 199.884 125.293 206.154 122.367 211.164C120.821 213.85 118.35 216.055 115.242 217.555C111.892 219.19 107.86 220 103.266 220ZM38.9894 218.2C41.0208 218.245 77.798 219.1 103.266 219.1C111.816 219.1 118.486 216.055 121.579 210.714C124.338 205.989 124.005 200.049 120.7 194.424C112.301 180.128 91.4417 149.362 89.0768 145.851C81.0119 149.737 66.4132 159.892 55.3618 170.573C55.9682 171.563 58.136 174.923 61.8653 178.598C65.9432 182.618 72.765 187.853 82.1185 189.969L81.9669 190.854C73.4472 190.134 48.8583 188.453 46.0386 188.273C42.0971 194.214 35.8514 210.684 37.6857 216.52C37.9586 217.39 38.383 217.945 38.9894 218.2Z" fill="#040D43"/>
<path d="M99.174 191.769L81.6191 190.824L81.6798 189.924L99.2194 190.869L99.174 191.769Z" fill="#040D43"/>
<g style="mix-blend-mode:multiply">
<path d="M65.5195 179.813C65.5195 179.813 101.023 182.018 117.274 207.909C125.173 220.48 128.189 204.924 125.976 196.944C122.247 183.428 108.876 162.187 108.876 162.187L65.5195 179.813Z" fill="#C4C8E0"/>
</g>
<path d="M156.719 199.42C156.719 199.42 179.473 210.88 180.474 213.325C181.474 215.77 181.126 216.745 180.019 216.7L139.27 215.59C138.603 215.575 138.103 214.99 138.178 214.345L140.725 194.469C140.816 193.779 141.559 193.359 142.226 193.614L156.522 199.315C156.592 199.345 156.658 199.38 156.719 199.42Z" fill="#040D43"/>
<path fill-rule="evenodd" clip-rule="evenodd" d="M180.065 217.165C180.045 217.165 180.025 217.16 180.005 217.15L139.256 216.04C138.816 216.04 138.391 215.83 138.103 215.5C137.815 215.17 137.679 214.72 137.724 214.285L140.271 194.424C140.332 193.944 140.605 193.539 141.014 193.299C141.439 193.059 141.939 193.029 142.394 193.209L156.704 198.894C156.785 198.934 156.866 198.979 156.947 199.029C157.311 199.209 162.859 202.014 168.438 205.06C171.667 206.815 180.217 211.48 180.899 213.16C181.596 214.87 181.702 215.965 181.248 216.61C181.081 216.865 180.732 217.165 180.065 217.165ZM141.802 193.989C141.696 193.989 141.575 194.019 141.484 194.079C141.317 194.169 141.196 194.334 141.181 194.529L138.634 214.405C138.604 214.585 138.664 214.765 138.786 214.915C138.907 215.05 139.089 215.14 139.286 215.14L180.02 216.25C180.384 216.265 180.474 216.145 180.505 216.1C180.626 215.935 180.808 215.35 180.05 213.505C179.883 213.085 178.367 211.51 167.998 205.855C162.268 202.719 156.568 199.839 156.507 199.809L156.477 199.794C156.436 199.764 156.396 199.744 156.356 199.734L142.06 194.034C141.979 194.004 141.893 193.989 141.802 193.989Z" fill="#040D43"/>
<path d="M181.035 215.41L181.217 219.43L138.058 219.1L138.179 214.345L181.035 215.41Z" fill="white"/>
<path fill-rule="evenodd" clip-rule="evenodd" d="M181.702 219.881L137.588 219.551L137.739 213.88L181.475 214.975L181.702 219.881ZM138.528 218.651L180.747 218.966L180.611 215.845L138.634 214.81L138.528 218.651Z" fill="#040D43"/>
<path d="M172.713 213.415C172.562 213.415 172.41 213.355 172.289 213.25C171.986 213.01 171.955 212.59 172.198 212.305L174.881 209.109C175.124 208.824 175.548 208.794 175.836 209.034C176.124 209.274 176.17 209.694 175.927 209.979L173.244 213.175C173.107 213.325 172.91 213.415 172.713 213.415Z" fill="white"/>
<path d="M169.666 212.56C169.514 212.56 169.363 212.515 169.226 212.41C168.938 212.17 168.908 211.735 169.15 211.45L172.501 207.475C172.743 207.19 173.168 207.145 173.456 207.385C173.744 207.625 173.789 208.045 173.547 208.33L170.196 212.32C170.06 212.47 169.863 212.56 169.666 212.56Z" fill="white"/>
<path d="M166.103 211.81C165.952 211.81 165.8 211.75 165.664 211.645C165.376 211.405 165.345 210.985 165.588 210.7L169.575 205.959C169.817 205.674 170.242 205.629 170.545 205.869C170.833 206.11 170.863 206.529 170.621 206.815L166.634 211.555C166.497 211.72 166.3 211.81 166.103 211.81Z" fill="white"/>
<path d="M132.449 216.88L117.926 167.062L70.1579 185.633C50.4958 172.778 46.5847 156.307 60.0767 151.927C73.9174 147.426 138.179 122.6 144.713 142.626C148.7 154.807 166.285 203.814 166.285 203.814C161.676 207.789 138.012 218.995 132.449 216.88Z" fill="white"/>
<path fill-rule="evenodd" clip-rule="evenodd" d="M134.238 217.6C133.48 217.6 132.813 217.51 132.283 217.3L132.071 217.225L117.623 167.663L70.0981 186.143L69.901 186.008C63.7765 182.003 58.8496 177.428 55.6661 172.763C52.619 168.308 51.285 163.987 51.7853 160.267C52.3462 156.082 55.1659 153.037 59.9411 151.492C61.3661 151.027 63.2914 150.367 65.7321 149.512C74.555 146.467 89.3053 141.351 103.661 137.961C121.08 133.836 133.238 133.386 139.802 136.596C142.516 137.931 144.32 139.911 145.153 142.491C149.095 154.522 166.528 203.169 166.71 203.664L166.816 203.949L166.589 204.144C164.194 206.214 157.023 210.04 149.898 213.04C145.593 214.87 138.422 217.6 134.238 217.6ZM132.813 216.535C135.254 217.24 141.454 215.635 149.55 212.215C156.371 209.335 163.208 205.719 165.755 203.664C164.285 199.569 148.064 154.327 144.289 142.761C143.531 140.436 141.879 138.621 139.393 137.406C124.536 130.116 83.5446 144.307 66.0353 150.367C63.5946 151.222 61.6542 151.882 60.214 152.347C55.8026 153.787 53.1951 156.562 52.6797 160.387C51.6791 167.753 58.5616 177.458 70.2042 185.138L118.215 166.463L132.813 216.535Z" fill="#040D43"/>
<path d="M117.486 167.183L112.878 152.362L113.757 152.107L118.351 166.928L117.486 167.183Z" fill="#040D43"/>
<path d="M52.1332 164.108C52.1332 164.108 45.0991 130.251 42.3704 113.706C39.6417 97.1448 54.5739 95.1798 61.1077 96.1848C64.8521 96.7548 75.2364 100.685 76.6463 106.31C84.499 137.587 91.6998 142.612 91.6998 142.612C79.8601 143.977 53.7553 155.213 52.1332 164.108Z" fill="white"/>
<path fill-rule="evenodd" clip-rule="evenodd" d="M52.1636 166.477L51.6936 164.197C51.6178 163.852 44.6141 130.146 41.9157 113.765C40.9455 107.87 42.0824 103.264 45.2811 100.054C47.267 98.0892 50.0564 96.6791 53.3763 95.9891C55.9383 95.4641 58.7732 95.3741 61.1684 95.7341C65.1099 96.3341 75.6003 100.324 77.086 106.205C79.2993 115.025 82.8921 127.326 87.4248 135.816C90.1536 140.916 91.9424 142.236 91.9575 142.236L92.9126 142.926L91.7453 143.061C85.7876 143.751 76.3735 146.916 68.2934 150.937C59.0006 155.572 53.2702 160.402 52.588 164.182L52.1636 166.477ZM58.1061 96.4091C56.5902 96.4091 55.0287 96.5741 53.5583 96.8741C50.4202 97.5192 47.7824 98.8542 45.933 100.699C42.9314 103.684 41.8854 108.035 42.8101 113.63C45.1598 127.896 50.784 155.362 52.2242 162.367C56.3325 153.697 79.2083 144.006 90.6841 142.296C88.6073 140.136 82.6344 132.051 76.1915 106.43C74.8423 101.029 64.6702 97.1741 61.0319 96.6191C60.1072 96.4841 59.1218 96.4091 58.1061 96.4091Z" fill="#040D43"/>
<g style="mix-blend-mode:multiply">
<path d="M48.0245 124.161C51.5718 112.925 93.5336 138.982 90.8049 145.042C88.0762 151.087 44.4771 135.396 48.0245 124.161Z" fill="#C4C8E0"/>
</g>
<path d="M56.273 96.5744L63.6861 88.894L68.6887 92.8842L63.6254 97.4144C63.6254 97.4144 73.0244 105.89 70.2199 107.84C67.0212 110.06 56.0456 98.1645 56.273 96.5744Z" fill="white"/>
<path fill-rule="evenodd" clip-rule="evenodd" d="M69.2489 108.56C68.3848 108.56 67.2933 108.155 65.9895 107.375C61.9571 104.915 55.5901 98.1048 55.8175 96.4997L55.8478 96.3647L63.6398 88.2793L69.4005 92.8695L64.2917 97.4147C65.8986 98.8998 71.3712 104.18 71.1893 106.925C71.159 107.465 70.9164 107.9 70.492 108.2C70.1483 108.44 69.734 108.56 69.2489 108.56ZM56.7422 96.7397C57.0909 98.0898 62.8515 104.78 67.2175 107.03C68.0967 107.48 69.2943 107.93 69.9614 107.465C70.1736 107.33 70.2646 107.135 70.2949 106.865C70.3252 106.265 69.9462 104.735 66.9143 101.375C65.1558 99.3948 63.3366 97.7597 63.3063 97.7447L62.9425 97.4147L67.9906 92.8995L63.7156 89.5094L56.7422 96.7397Z" fill="#040D43"/>
<path d="M66.6264 82.7589C65.0801 82.6989 67.0812 87.1541 63.0335 85.489C62.4575 85.534 61.9572 86.1791 61.9269 87.0191C61.8966 87.7241 62.1998 88.3392 62.6545 88.5492C62.9426 90.7543 65.8381 93.7244 67.6572 93.7994C69.7644 93.8894 70.0979 90.5143 70.2192 87.8141C70.3405 85.114 68.7336 82.8489 66.6264 82.7589Z" fill="white"/>
<path fill-rule="evenodd" clip-rule="evenodd" d="M67.7489 94.2496C67.7084 94.2496 67.6731 94.2496 67.6427 94.2496C65.6265 94.1596 62.7007 91.1895 62.2459 88.8344C61.7457 88.4744 61.4425 87.7693 61.4728 86.9893C61.5183 85.9242 62.1853 85.0992 63.0039 85.0542L63.11 85.0392L63.2161 85.0842C64.247 85.5042 64.7321 85.4592 64.9443 85.3242C65.2778 85.1292 65.3536 84.5592 65.4294 83.9891C65.5204 83.2691 65.6568 82.2641 66.6574 82.3091C68.992 82.4141 70.7959 84.8892 70.6747 87.8293C70.614 89.1944 70.4927 90.7545 70.1138 91.9845C69.659 93.4846 68.8555 94.2496 67.7489 94.2496ZM62.9736 85.9542C62.7007 86.0442 62.4127 86.4643 62.3824 87.0343C62.352 87.6043 62.5946 88.0243 62.8523 88.1443L63.0797 88.2493L63.11 88.5044C63.2313 89.4194 63.9135 90.6345 64.914 91.6695C65.8691 92.6596 66.9606 93.3196 67.6731 93.3496C68.1279 93.3646 68.7797 93.2296 69.2497 91.7295C69.5983 90.5744 69.7045 89.0144 69.7651 87.7993C69.8712 85.3392 68.4614 83.2841 66.6119 83.2091C66.4755 83.2091 66.4148 83.4941 66.3239 84.1092C66.2329 84.8142 66.1268 85.6992 65.3991 86.1042C64.8382 86.4343 64.0499 86.3743 62.9736 85.9542Z" fill="#040D43"/>
<path d="M68.7639 123.275L68.6123 122.39C68.6578 122.375 72.6144 121.685 73.5089 119.06C74.1759 117.11 73.0238 114.545 70.098 111.44L70.765 110.825C73.9485 114.2 75.1613 117.065 74.373 119.345C73.3118 122.48 68.961 123.245 68.7639 123.275Z" fill="#040D43"/>
<path d="M77.995 120.29C77.995 120.29 88.4248 115.4 76.4336 108.17L77.995 120.29Z" fill="white"/>
<path d="M78.1925 120.695L77.8135 119.87C77.8438 119.855 81.6034 118.07 81.7398 115.205C81.8611 113.075 79.9965 110.84 76.1914 108.545L76.6765 107.78C80.7696 110.255 82.7858 112.775 82.6494 115.25C82.5736 116.675 81.7701 118.07 80.33 119.285C79.2688 120.185 78.238 120.665 78.1925 120.695Z" fill="#040D43"/>
<path d="M103.023 99.7241L101.053 109.865L106.98 108.53L106.237 100.669L103.023 99.7241Z" fill="white"/>
<path fill-rule="evenodd" clip-rule="evenodd" d="M101.053 110.315C100.932 110.315 100.826 110.27 100.735 110.195C100.629 110.09 100.568 109.925 100.599 109.775L102.569 99.6343C102.6 99.5143 102.675 99.3943 102.782 99.3343C102.888 99.2743 103.024 99.2442 103.145 99.2892L106.374 100.234C106.541 100.279 106.678 100.444 106.693 100.624L107.42 108.485C107.451 108.71 107.299 108.92 107.072 108.965L101.16 110.3C101.119 110.31 101.084 110.315 101.053 110.315ZM103.373 100.294L101.629 109.28L106.481 108.17L105.814 101.014L103.373 100.294Z" fill="#040D43"/>
<path d="M98.4164 124.895C91.6552 120.425 99.8263 108.89 105.496 98.2692C108.498 92.6589 110.65 90.0338 112.181 90.7238C113.788 91.4439 109.71 98.4192 109.71 98.4192C109.71 98.4192 114.758 90.6188 116.396 91.4888C118.169 92.4339 112.636 99.9342 112.636 99.9342C112.636 99.9342 117.654 92.0439 119.064 93.1989C120.064 94.024 115.789 101.839 115.789 101.839C115.789 101.839 120.019 96.8441 120.959 97.5491C121.944 98.2992 117.245 106.28 114.561 110.765C112.621 114.005 100.812 126.47 98.4164 124.895Z" fill="white"/>
<path fill-rule="evenodd" clip-rule="evenodd" d="M98.946 125.48C98.6428 125.48 98.3851 125.405 98.1728 125.255C95.3986 123.44 94.7316 120.365 96.1111 115.88C97.2936 112.01 99.8859 107.39 102.387 102.934C103.297 101.329 104.237 99.6643 105.086 98.0592C108.421 91.8189 110.604 89.5088 112.377 90.3038C112.559 90.3938 112.817 90.5738 112.938 90.9638C113.014 91.2039 113.226 91.8489 112.423 93.919C114.424 91.4889 115.728 90.6188 116.622 91.0989C116.895 91.2489 117.092 91.5039 117.168 91.8339C117.213 92.0439 117.319 92.5089 116.865 93.709C117.865 92.7639 118.335 92.6889 118.547 92.6589C118.942 92.5839 119.199 92.7339 119.366 92.8539C119.821 93.2439 120.003 94.129 118.214 98.0142C118.047 98.3892 117.865 98.7642 117.698 99.1092C119.563 97.2641 120.594 96.7091 121.231 97.1891C122.11 97.8492 121.367 100.249 114.955 110.99C114.015 112.535 111.028 115.97 107.981 118.97C105.768 121.16 101.72 124.895 99.4614 125.42C99.2694 125.46 99.0976 125.48 98.946 125.48ZM98.6731 124.52C98.8096 124.61 99.0673 124.58 99.2492 124.535C100.75 124.205 103.691 121.94 107.344 118.34C110.346 115.385 113.272 112.025 114.166 110.525C115.591 108.14 117.228 105.365 118.532 102.904C120.427 99.3342 120.639 98.2542 120.639 97.9392C119.988 98.0892 118.002 99.9343 116.137 102.124C115.985 102.304 115.728 102.349 115.531 102.214C115.334 102.079 115.273 101.824 115.394 101.629C115.394 101.614 116.38 99.7993 117.289 97.8642C118.851 94.519 118.79 93.694 118.76 93.544C118.739 93.534 118.714 93.534 118.684 93.544C118.199 93.619 116.834 94.774 114.848 97.4891C113.893 98.9742 113.014 100.189 112.999 100.204C112.863 100.399 112.574 100.444 112.377 100.309C112.18 100.174 112.12 99.8893 112.241 99.6943C112.256 99.6793 112.999 98.5092 113.984 97.1591C115.288 95.104 116.47 92.8839 116.273 92.0289C116.243 91.9239 116.213 91.8939 116.182 91.8789C116.182 91.8789 115.47 91.5489 112.802 94.894C111.362 96.7091 110.103 98.6442 110.088 98.6592C109.952 98.8692 109.679 98.9292 109.467 98.8092C109.255 98.6742 109.179 98.4042 109.315 98.1942C110.558 96.0641 112.408 92.2989 112.074 91.2339C112.044 91.1439 112.014 91.1289 111.998 91.1289C111.195 90.7688 109.482 91.7439 105.889 98.4792C105.025 100.099 104.1 101.764 103.191 103.369C98.097 112.415 93.2915 120.965 98.6731 124.52Z" fill="#040D43"/>
<path d="M45.8115 118.73C45.8115 118.73 75.9488 139.866 86.7425 145.161C97.6574 150.516 115.728 111.995 115.728 111.995C116.546 107.719 108.208 103.339 101.887 104.209C96.8388 113.06 90.1382 129.14 84.7262 125.87C74.3722 119.63 47.9187 99.9941 47.9187 99.9941L45.8115 118.73Z" fill="white"/>
<path d="M88.9562 146.122C88.1072 146.122 87.3038 145.937 86.5458 145.567C75.8431 140.316 45.8423 119.3 45.5391 119.09L46.0696 118.355C46.3728 118.565 76.2979 139.536 86.9551 144.757C88.1527 145.342 89.4565 145.387 90.9421 144.862C101.205 141.291 114.637 113.27 115.288 111.86C115.516 110.525 114.682 109.325 113.924 108.545C111.332 105.845 106.208 104.15 102.16 104.63C101.22 106.295 100.235 108.2 99.1738 110.21C95.4293 117.38 91.1695 125.511 87.1673 126.621C86.2123 126.891 85.3179 126.756 84.4841 126.261C74.2362 120.066 53.4675 104.645 53.2553 104.48L53.8011 103.76C54.0133 103.925 74.7516 119.33 84.954 125.496C85.5756 125.856 86.2123 125.946 86.9096 125.751C90.5328 124.761 94.7017 116.81 98.3703 109.79C99.4618 107.69 100.508 105.71 101.493 103.985L101.599 103.79L101.827 103.76C106.162 103.16 111.771 104.99 114.591 107.915C115.895 109.265 116.441 110.705 116.183 112.085L116.168 112.145L116.137 112.19C116.107 112.265 112.62 119.69 107.845 127.476C101.402 137.991 95.8235 144.127 91.2453 145.717C90.457 145.987 89.6939 146.122 88.9562 146.122Z" fill="#040D43"/>
<path d="M92.094 139.551C92.094 139.551 88.5467 143.226 83.1953 139.551H92.094Z" fill="white"/>
<path d="M87.8492 141.621C86.4545 141.621 84.787 141.201 82.9375 139.911L83.4529 139.176C88.395 142.581 91.6391 139.371 91.7756 139.236L92.4274 139.866C92.3971 139.881 90.6689 141.621 87.8492 141.621Z" fill="#040D43"/>
</svg>
