<svg width="12" height="6" viewBox="0 0 12 6" fill="none" xmlns="http://www.w3.org/2000/svg">
<path d="M12 0.633816C11.9468 0.446997 11.8569 0.28353 11.6806 0.158011C11.3811 -0.0492418 10.9485 -0.0550799 10.649 0.155092C10.5925 0.195958 10.5359 0.239744 10.4826 0.286449C9.02519 1.56499 7.5644 2.84645 6.10695 4.125C6.07367 4.15419 6.04705 4.18922 5.96719 4.24176C5.9439 4.20673 5.93059 4.16294 5.89731 4.13375C4.42655 2.84062 2.95245 1.5504 1.48168 0.257257C1.22214 0.0295716 0.922659 -0.0579998 0.563286 0.0412478C0.040864 0.1872 -0.172097 0.776848 0.157328 1.16216C0.193931 1.20595 0.237188 1.24681 0.280446 1.28768C1.97749 2.7764 3.6712 4.26511 5.36824 5.75091C5.6777 6.02238 6.07034 6.07492 6.42639 5.89394C6.51291 5.85015 6.58944 5.78594 6.65932 5.72464C8.30644 4.27971 9.95024 2.83478 11.6007 1.39277C11.7837 1.23222 11.9468 1.06875 12 0.838149C12 0.771011 12 0.703873 12 0.633816Z" fill="white"/>
</svg>
