<svg width="133" height="87" viewBox="0 0 133 87" fill="none" xmlns="http://www.w3.org/2000/svg">
<rect y="0.666504" width="133" height="86.3333" rx="4" fill="white"/>
<path d="M60.3189 25.2636C62.5577 22.9025 65.6683 21.4368 69.1164 21.4368C73.6952 21.4368 77.6889 24.026 79.8152 27.87C81.7174 27.007 83.7781 26.5619 85.862 26.5639C94.1195 26.5639 100.813 33.4134 100.813 41.854C100.813 50.3003 94.1195 57.1498 85.862 57.1498C84.8552 57.1498 83.8708 57.0471 82.9145 56.8532C81.0414 60.2409 77.4695 62.5278 73.3745 62.5278C71.6589 62.5278 70.0389 62.1286 68.5933 61.41C66.692 65.9383 62.2708 69.115 57.1127 69.115C51.7408 69.115 47.1677 65.6703 45.4127 60.8397C44.6477 61.0051 43.8489 61.0907 43.0333 61.0907C36.6377 61.0907 31.457 55.781 31.457 49.2339C31.457 44.8425 33.7858 41.01 37.2452 38.9625C36.5109 37.2514 36.1336 35.4049 36.137 33.5389C36.137 26.005 42.167 19.897 49.6089 19.897C53.9739 19.8913 57.8608 22.0014 60.3189 25.2636Z" fill="#00A1E0"/>
<path d="M41.5025 45.4187C41.4575 45.5327 41.5194 45.5555 41.5306 45.5783C41.66 45.6753 41.795 45.7437 41.9244 45.8236C42.6331 46.2057 43.2969 46.314 44 46.314C45.4231 46.314 46.3063 45.5441 46.3063 44.3122V44.2894C46.3063 43.1488 45.3106 42.7325 44.3713 42.4359L44.2475 42.396C43.5444 42.1622 42.9313 41.9626 42.9313 41.4949V41.4721C42.9313 41.0672 43.2856 40.7706 43.8369 40.7706C44.45 40.7706 45.1756 40.9759 45.6425 41.2383C45.6425 41.2383 45.7775 41.3295 45.8281 41.1926C45.8563 41.1185 46.0925 40.474 46.115 40.4056C46.1431 40.3315 46.0925 40.2744 46.0475 40.2459C45.5131 39.9151 44.7763 39.6927 44.0113 39.6927H43.8706C42.5713 39.6927 41.66 40.4912 41.66 41.6318V41.6546C41.66 42.8579 42.6613 43.2515 43.6006 43.5252L43.7525 43.5708C44.4388 43.7819 45.0294 43.9701 45.0294 44.4548V44.4776C45.0294 44.9225 44.6469 45.259 44.0281 45.259C43.7863 45.259 43.0213 45.2533 42.1944 44.7229C42.0931 44.6658 42.0369 44.6202 41.9581 44.5746C41.9188 44.5461 41.8175 44.5062 41.7725 44.6373L41.5025 45.4187ZM62.3319 45.4187C62.2869 45.5327 62.3488 45.5555 62.36 45.5783C62.4894 45.6753 62.6244 45.7437 62.7538 45.8236C63.4625 46.2057 64.1263 46.314 64.8294 46.314C66.2525 46.314 67.1356 45.5441 67.1356 44.3122V44.2894C67.1356 43.1488 66.14 42.7325 65.2006 42.4359L65.0769 42.396C64.3738 42.1622 63.7606 41.9626 63.7606 41.4949V41.4721C63.7606 41.0672 64.115 40.7706 64.6663 40.7706C65.2794 40.7706 66.005 40.9759 66.4719 41.2383C66.4719 41.2383 66.6069 41.3295 66.6575 41.1926C66.6856 41.1185 66.9219 40.474 66.9444 40.4056C66.9725 40.3315 66.9219 40.2744 66.8769 40.2459C66.3425 39.9151 65.6056 39.6927 64.8406 39.6927H64.7C63.4006 39.6927 62.4894 40.4912 62.4894 41.6318V41.6546C62.4894 42.8579 63.4906 43.2515 64.43 43.5252L64.5819 43.5708C65.2681 43.7819 65.8588 43.9701 65.8588 44.4548V44.4776C65.8588 44.9225 65.4763 45.259 64.8575 45.259C64.6156 45.259 63.8506 45.2533 63.0238 44.7229C62.9225 44.6658 62.8663 44.6202 62.7875 44.5746C62.7594 44.5575 62.6413 44.5119 62.6019 44.6373L62.3319 45.4187ZM76.5463 43.0005C76.5463 43.6963 76.4169 44.2495 76.1638 44.6373C75.9163 45.0194 75.5338 45.2076 75.0106 45.2076C74.4819 45.2076 74.105 45.0194 73.8575 44.6373C73.61 44.2495 73.4806 43.6963 73.4806 43.0005C73.4806 42.3047 73.6044 41.7572 73.8575 41.3694C74.105 40.9873 74.4819 40.8048 75.0106 40.8048C75.5394 40.8048 75.9163 40.9873 76.1694 41.3694C76.4169 41.7515 76.5463 42.299 76.5463 43.0005ZM77.7331 41.7059C77.615 41.3067 77.435 40.9531 77.1931 40.6622C76.9458 40.3614 76.6342 40.1215 76.2819 39.9608C75.9219 39.7897 75.4888 39.7041 75.0106 39.7041C74.5269 39.7041 74.0994 39.7897 73.7394 39.9608C73.3738 40.1319 73.07 40.3714 72.8281 40.6622C72.5863 40.9588 72.4063 41.3067 72.2881 41.7059C72.17 42.1051 72.1138 42.5386 72.1138 43.0005C72.1138 43.4625 72.17 43.8959 72.2881 44.2951C72.4063 44.6944 72.5863 45.0479 72.8281 45.3388C73.07 45.6354 73.3794 45.8692 73.7394 46.0346C74.105 46.2 74.5325 46.2855 75.0106 46.2855C75.4944 46.2855 75.9219 46.2 76.2819 46.0346C76.6419 45.8692 76.9513 45.6297 77.1931 45.3388C77.435 45.0479 77.615 44.6944 77.7331 44.2951C77.8513 43.8959 77.9075 43.4625 77.9075 43.0005C77.9075 42.5386 77.8513 42.0994 77.7331 41.7059ZM87.4869 45.0194C87.4475 44.8997 87.335 44.9453 87.335 44.9453C87.1606 45.0137 86.9806 45.0765 86.7838 45.105C86.5869 45.1335 86.3675 45.1506 86.1313 45.1506C85.5575 45.1506 85.1019 44.9795 84.77 44.6373C84.4438 44.2951 84.2581 43.7419 84.2581 42.9891C84.2581 42.3047 84.4213 41.7915 84.7138 41.4037C85.0006 41.0158 85.445 40.8162 86.03 40.8162C86.5194 40.8162 86.8963 40.8733 87.2844 40.9987C87.2844 40.9987 87.38 41.0387 87.425 40.9132C87.5263 40.6223 87.605 40.4113 87.7175 40.0919C87.7513 40.0007 87.6725 39.9608 87.6444 39.9494C87.4925 39.8866 87.1269 39.7897 86.8513 39.7497C86.5925 39.7098 86.2944 39.687 85.9625 39.687C85.4619 39.687 85.0175 39.7726 84.6406 39.9437C84.2638 40.1147 83.9375 40.3486 83.6844 40.6451C83.4245 40.9504 83.2276 41.3052 83.105 41.6888C82.9756 42.088 82.9138 42.5215 82.9138 42.9834C82.9138 43.9815 83.1781 44.7913 83.7069 45.3787C84.23 45.9719 85.0231 46.2741 86.0525 46.2741C86.66 46.2741 87.2844 46.1487 87.7344 45.9719C87.7344 45.9719 87.8188 45.9319 87.785 45.8293L87.4869 45.0194ZM89.5681 42.3276C89.6244 41.9397 89.7313 41.6147 89.8944 41.3637C90.1419 40.9816 90.5131 40.7706 91.0419 40.7706C91.5706 40.7706 91.9194 40.9816 92.1669 41.3637C92.3356 41.6147 92.4031 41.9512 92.4313 42.3276H89.5681ZM93.5619 41.4778C93.4606 41.09 93.2131 40.7022 93.0444 40.5254C92.7856 40.2402 92.5325 40.0463 92.2794 39.9379C91.9146 39.7817 91.5223 39.7021 91.1263 39.7041C90.6256 39.7041 90.17 39.7897 89.7988 39.9665C89.4275 40.1433 89.1181 40.3828 88.8706 40.6851C88.6288 40.9816 88.4431 41.3409 88.325 41.7401C88.2069 42.1394 88.1506 42.5785 88.1506 43.0404C88.1506 43.5081 88.2125 43.9472 88.3306 44.3408C88.4544 44.74 88.6513 45.0879 88.9156 45.3787C89.18 45.6696 89.5175 45.8977 89.9281 46.0574C90.3331 46.2171 90.8225 46.2969 91.385 46.2969C92.5438 46.2912 93.1569 46.0289 93.41 45.892C93.455 45.8692 93.4944 45.8236 93.4438 45.6981L93.1794 44.951C93.14 44.8426 93.0275 44.8826 93.0275 44.8826C92.7407 44.9909 92.33 45.1848 91.3794 45.1848C90.755 45.1848 90.2938 44.9966 90.0069 44.7058C89.7088 44.4092 89.5625 43.9701 89.54 43.3484L93.5619 43.3541C93.5619 43.3541 93.6688 43.3541 93.68 43.2458C93.6856 43.1887 93.8206 42.396 93.5619 41.4778ZM57.3706 42.3276C57.4269 41.9397 57.5338 41.6147 57.6969 41.3637C57.9444 40.9816 58.3156 40.7706 58.8444 40.7706C59.3731 40.7706 59.7219 40.9816 59.9694 41.3637C60.1325 41.6147 60.2056 41.9512 60.2338 42.3276H57.3706ZM61.37 41.4778C61.2688 41.09 61.0213 40.7022 60.8581 40.5254C60.5994 40.2402 60.3463 40.0463 60.0931 39.9379C59.7283 39.7817 59.336 39.7021 58.94 39.7041C58.4394 39.7041 57.9838 39.7897 57.6125 39.9665C57.2413 40.1433 56.9319 40.3828 56.6844 40.6851C56.4425 40.9816 56.2569 41.3409 56.1388 41.7401C56.0206 42.1394 55.9644 42.5785 55.9644 43.0404C55.9644 43.5081 56.0263 43.9472 56.1444 44.3408C56.2681 44.74 56.465 45.0879 56.7294 45.3787C56.9938 45.6696 57.3313 45.8977 57.7419 46.0574C58.1469 46.2171 58.6363 46.2969 59.1988 46.2969C60.3575 46.2912 60.9706 46.0289 61.2238 45.892C61.2688 45.8692 61.3081 45.8236 61.2575 45.6981L60.9931 44.951C60.9538 44.8426 60.8413 44.8826 60.8413 44.8826C60.5544 44.9909 60.1438 45.1848 59.1931 45.1848C58.5688 45.1848 58.1075 44.9966 57.8206 44.7058C57.5225 44.4092 57.3763 43.9701 57.3538 43.3484L61.3756 43.3541C61.3756 43.3541 61.4825 43.3541 61.4938 43.2458C61.4938 43.1887 61.6288 42.396 61.37 41.4778ZM48.68 44.9966C48.5225 44.8712 48.5 44.8369 48.4494 44.7571C48.3706 44.6316 48.3313 44.4548 48.3313 44.2267C48.3313 43.8674 48.4494 43.6108 48.6913 43.4397C48.6856 43.4397 49.0344 43.1317 49.8556 43.1431C50.4294 43.1488 50.9469 43.2401 50.9469 43.2401V45.0936C50.9469 45.0936 50.435 45.2019 49.8613 45.2419C49.04 45.2875 48.68 44.9966 48.68 44.9966ZM50.2831 42.1337C50.12 42.1222 49.9063 42.1165 49.6531 42.1165C49.31 42.1165 48.9781 42.1622 48.6631 42.2477C48.3481 42.3333 48.0669 42.4644 47.825 42.6412C47.5831 42.818 47.3863 43.0462 47.24 43.3142C47.0994 43.5822 47.0263 43.9016 47.0263 44.2552C47.0263 44.6145 47.0881 44.9282 47.2119 45.1848C47.3356 45.4415 47.51 45.6582 47.735 45.8236C47.96 45.989 48.2356 46.1087 48.5563 46.1829C48.8713 46.257 49.2313 46.2912 49.6194 46.2912C50.03 46.2912 50.4406 46.257 50.84 46.1886C51.2338 46.1201 51.7175 46.0232 51.8525 45.989C51.9875 45.9547 52.1338 45.9148 52.1338 45.9148C52.235 45.892 52.2238 45.7837 52.2238 45.7837V42.0538C52.2238 41.2383 52.01 40.628 51.5825 40.2573C51.1606 39.8809 50.5419 39.6927 49.7375 39.6927C49.4338 39.6927 48.95 39.7326 48.6631 39.7954C48.6631 39.7954 47.7856 39.9665 47.4256 40.2516C47.4256 40.2516 47.3469 40.3029 47.3919 40.4113L47.6788 41.1869C47.7125 41.2896 47.8081 41.2554 47.8081 41.2554C47.8081 41.2554 47.8363 41.244 47.8756 41.2212C48.6519 40.7934 49.625 40.8048 49.625 40.8048C50.0581 40.8048 50.3956 40.8904 50.6206 41.0672C50.84 41.2383 50.9525 41.4949 50.9525 42.0367V42.2078C50.5981 42.1622 50.2831 42.1337 50.2831 42.1337ZM82.7056 40.0349C82.7166 40.0069 82.7163 39.9756 82.7047 39.9479C82.6931 39.9201 82.6712 39.8981 82.6438 39.8866C82.5763 39.8581 82.2331 39.784 81.9688 39.7669C81.4625 39.7383 81.1813 39.8239 80.9338 39.9379C80.6863 40.052 80.4106 40.2345 80.2531 40.4455V39.9494C80.2531 39.8809 80.2025 39.8239 80.135 39.8239H79.1056C79.0381 39.8239 78.9875 39.8809 78.9875 39.9494V46.0289C78.9875 46.0973 79.0438 46.1544 79.1113 46.1544H80.1688C80.2363 46.1544 80.2925 46.0973 80.2925 46.0289V42.9891C80.2925 42.5842 80.3375 42.1736 80.4275 41.9169C80.5119 41.666 80.6356 41.4607 80.7819 41.3181C80.9281 41.1755 81.0969 41.0729 81.2769 41.0158C81.4625 40.9588 81.6706 40.936 81.8169 40.936C82.025 40.936 82.2613 40.993 82.2613 40.993C82.34 41.0044 82.3794 40.9531 82.4075 40.8847C82.4694 40.7022 82.6663 40.1433 82.7056 40.0349Z" fill="white"/>
<path d="M72.7895 37.2174C72.6602 37.1775 72.542 37.149 72.3902 37.1205C72.2383 37.092 72.0527 37.0806 71.8445 37.0806C71.1189 37.0806 70.5452 37.2916 70.1402 37.7022C69.7408 38.1128 69.4708 38.7345 69.3302 39.55L69.2795 39.8238H68.3683C68.3683 39.8238 68.2558 39.8181 68.2333 39.9435L68.0814 40.7933C68.0702 40.8731 68.1039 40.9245 68.2108 40.9245H69.0995L68.1995 46.0231C68.132 46.4337 68.0477 46.7702 67.9577 47.0268C67.8677 47.2778 67.7833 47.466 67.6764 47.6085C67.5752 47.7397 67.4795 47.8367 67.3108 47.8937C67.1702 47.9393 67.0127 47.9621 66.8383 47.9621C66.7427 47.9621 66.6133 47.945 66.5177 47.9279C66.422 47.9108 66.3714 47.888 66.2983 47.8595C66.2983 47.8595 66.197 47.8195 66.152 47.9222C66.1183 48.0078 65.882 48.6693 65.8539 48.7492C65.8258 48.829 65.8652 48.8917 65.9158 48.9146C66.0339 48.9545 66.1239 48.983 66.2814 49.0229C66.5064 49.0742 66.692 49.0799 66.872 49.0799C67.2433 49.0799 67.5808 49.0286 67.8564 48.926C68.1377 48.8233 68.3795 48.6408 68.5989 48.4013C68.8352 48.1389 68.9814 47.8652 69.122 47.4888C69.2627 47.1181 69.3808 46.6561 69.4764 46.12L70.382 40.9245H71.7039C71.7039 40.9245 71.8164 40.9302 71.8389 40.8047L71.9908 39.9549C72.002 39.8751 71.9683 39.8238 71.8614 39.8238H70.5733C70.5789 39.7953 70.6408 39.3333 70.787 38.9056C70.8489 38.7231 70.967 38.5748 71.0683 38.4721C71.1695 38.3695 71.282 38.301 71.4058 38.2611C71.5352 38.2212 71.6758 38.1984 71.8389 38.1984C71.957 38.1984 72.0808 38.2098 72.1708 38.2326C72.2945 38.2611 72.3452 38.2725 72.3789 38.2839C72.5083 38.3238 72.5308 38.2839 72.5533 38.2212L72.8627 37.3657C72.8964 37.2688 72.8177 37.2288 72.7895 37.2174ZM54.8345 46.0288C54.8345 46.0972 54.7839 46.1542 54.7164 46.1542H53.6477C53.5802 46.1542 53.5352 46.0972 53.5352 46.0288V37.3315C53.5352 37.2631 53.5802 37.206 53.6477 37.206H54.7164C54.7839 37.206 54.8345 37.2631 54.8345 37.3315V46.0288Z" fill="white"/>
</svg>
