<svg width="133" height="87" viewBox="0 0 133 87" fill="none" xmlns="http://www.w3.org/2000/svg">
<rect y="0.666504" width="133" height="86.3333" rx="4" fill="white"/>
<g clip-path="url(#clip0_3434_17568)">
<path d="M58.9333 22.4391H72.3708L58.4217 63.7687C58.2785 64.1936 58.0056 64.5627 57.6414 64.8242C57.2772 65.0857 56.8402 65.2263 56.3918 65.2263H45.9345C45.5949 65.2262 45.2602 65.1453 44.958 64.9903C44.6558 64.8353 44.3948 64.6106 44.1966 64.3348C43.9984 64.059 43.8688 63.7399 43.8185 63.404C43.7682 63.0682 43.7986 62.7251 43.9073 62.4033L56.9034 23.8963C57.0468 23.4715 57.3197 23.1024 57.6839 22.8408C58.048 22.5793 58.485 22.4386 58.9333 22.4385V22.4391Z" fill="url(#paint0_linear_3434_17568)"/>
<path d="M78.4602 50.1606H57.1517C56.9536 50.1603 56.7599 50.2196 56.596 50.3309C56.4321 50.4422 56.3055 50.6004 56.2328 50.7847C56.1601 50.969 56.1446 51.171 56.1884 51.3642C56.2322 51.5575 56.3332 51.733 56.4783 51.868L70.1705 64.6481C70.5691 65.02 71.094 65.2268 71.6392 65.2267H83.7049L78.4602 50.1606Z" fill="#0078D4"/>
<path d="M58.9342 22.4395C58.481 22.4378 58.0391 22.581 57.673 22.8483C57.307 23.1156 57.036 23.4928 56.8997 23.9251L43.9243 62.3687C43.8084 62.6916 43.7721 63.0377 43.8183 63.3777C43.8645 63.7177 43.9919 64.0415 44.1897 64.3219C44.3875 64.6022 44.6499 64.8308 44.9548 64.9882C45.2596 65.1457 45.5979 65.2275 45.941 65.2266H56.6685C57.068 65.1552 57.4414 64.9791 57.7506 64.7161C58.0597 64.4532 58.2936 64.1129 58.4282 63.7301L61.0156 56.1042L70.2585 64.7249C70.6457 65.0453 71.1315 65.2225 71.6341 65.2266H83.655L78.3827 50.1605L63.0138 50.1642L72.4202 22.4395H58.9342Z" fill="url(#paint1_linear_3434_17568)"/>
<path d="M76.0966 23.8947C75.9535 23.4705 75.6809 23.1018 75.3172 22.8408C74.9535 22.5797 74.517 22.4393 74.0693 22.4395H59.0938C59.5414 22.4395 59.9777 22.5799 60.3413 22.841C60.7049 23.102 60.9775 23.4706 61.1207 23.8947L74.1172 62.4033C74.226 62.7252 74.2566 63.0683 74.2064 63.4043C74.1562 63.7403 74.0267 64.0596 73.8286 64.3356C73.6305 64.6116 73.3695 64.8364 73.0672 64.9915C72.7649 65.1465 72.43 65.2273 72.0903 65.2272H87.0665C87.4061 65.227 87.7408 65.1459 88.0429 64.9908C88.345 64.8356 88.6058 64.6108 88.8038 64.3349C89.0018 64.059 89.1313 63.7399 89.1816 63.404C89.2319 63.0682 89.2016 62.7252 89.0931 62.4033L76.0966 23.8947Z" fill="url(#paint2_linear_3434_17568)"/>
</g>
<defs>
<linearGradient id="paint0_linear_3434_17568" x1="63.8311" y1="25.6098" x2="49.8761" y2="66.8357" gradientUnits="userSpaceOnUse">
<stop stop-color="#114A8B"/>
<stop offset="1" stop-color="#0669BC"/>
</linearGradient>
<linearGradient id="paint1_linear_3434_17568" x1="68.1909" y1="44.8225" x2="64.9631" y2="45.9138" gradientUnits="userSpaceOnUse">
<stop stop-opacity="0.3"/>
<stop offset="0.071" stop-opacity="0.2"/>
<stop offset="0.321" stop-opacity="0.1"/>
<stop offset="0.623" stop-opacity="0.05"/>
<stop offset="1" stop-opacity="0"/>
</linearGradient>
<linearGradient id="paint2_linear_3434_17568" x1="66.4151" y1="24.4076" x2="81.7335" y2="65.2183" gradientUnits="userSpaceOnUse">
<stop stop-color="#3CCBF4"/>
<stop offset="1" stop-color="#2892DF"/>
</linearGradient>
<clipPath id="clip0_3434_17568">
<rect width="46" height="46" fill="white" transform="translate(43.5 20.833)"/>
</clipPath>
</defs>
</svg>
